<?xml version="1.0" encoding="UTF-8"?>
<svg id="Lager_1" data-name="Lager 1" xmlns="http://www.w3.org/2000/svg" viewBox="0 0 227.04 225.14">
  <defs>
    <style>
      .cls-1 {
        fill: #fff;
        stroke-width: 0px;
      }
    </style>
  </defs>
  <path class="cls-1" d="m177.45,46.35c3.77-1.63,7.64-.96,11.31.04,17.31,4.69,30,15.06,36.18,32.02,4.2,11.53,1.47,23.09-2.71,34.23-3.04,8.12-7.12,15.87-7.97,24.74-.45,4.72.55,9.35-.1,14.11-2.01,14.65-7.54,27.52-18.22,37.89-5.57,5.41-12.15,8.47-20.21,7.79-5.9-.5-10.44-2.92-13.33-8.17,1.12-.01,1.61-.89,2.23-1.6.26.02.52.04.79.06,2.34,1.13,4.62,2.2,7.36,2.39,9.01.6,15.45-3.75,20.71-10.4,8.63-10.9,13.31-23.39,12.75-37.26-.29-7.14.38-13.81,2.89-20.4,2.65-6.95,6.12-13.61,7.58-20.99,1.62-8.13,2.37-16.26-.97-24.17-4.72-11.18-14.31-17.38-24.08-23.37-.8-.49-1.69-.18-2.39.47-.79.31-1.58.63-2.38.94-1.39-.32-2.78-.64-4.17-.96-1.84-1.23-3.77-.85-5.71-.31-.28-1.42-1.21-1.98-2.59-1.94-.96-1.9-.04-2.31,1.66-2.09,1.3,2.59,4.09.92,5.9,2.05,1.57,1.04,3.32,1.49,5.18,1.57.36-.24.73-.48,1.09-.72-1.73-1.75-4.16-1.53-6.28-2.21-1.25-.29-2.67.3-3.77-.76-.48-.94-.85-1.9-.75-2.98Zm5.98,2.17c.32-.11.65-.22.97-.33-.32-.12-.64-.24-.96-.37-.95.04-1.97-.35-3.53.7,1.64,0,2.58,0,3.52,0Zm5.98.5c-.88-.44-1.7-1.41-2.86-.48.58,1.5,1.76,1.4,2.84,1.5,2.11,1.05,4.25,2.04,6.31,3.17,12.11,6.59,21.2,15.78,23.87,29.75,1.87,9.78-.12,19.42-4.14,28.37-5.14,11.41-7.84,22.97-7.52,35.67.31,12.36-4.95,23.43-12.42,33.28-4.24,5.58-9.45,9.86-16.47,11.45-3.61.82-7.24,0-11.97-.41,3.14,2.59,5.72,3.41,8.59,3.65,9.69.81,16.81-3.95,22.46-11.01,9.47-11.84,14.62-25.3,13.81-40.71-.37-7.08,1.13-13.81,3.74-20.36,2.21-5.54,4.86-10.91,6.47-16.67,3.71-13.34,4-26.22-4.85-38.03-7.16-9.56-16.28-16.11-27.86-19.18Z"/>
  <path class="cls-1" d="m114.01,19.34c1.46-.08,2.01,1.73,4.23,1.78-3.83-5.53-8.9-7.74-14.72-8.34-5.78-.6-11.56.19-17.39.34,5.26-2.11,10.74-2.96,16.35-2.47,4.58.4,9.06,1.46,12.99,4.06,1.44.95,2.28,1.12,2.06-1.03.04-.35.09-.69.13-1.04.61.35,1.21.7,2.26,1.3-.67-2.65-.96-4.9-3.57-5.77-4.33-4.66-10.12-5.59-15.99-5.95-11.59-.72-22.72,1.85-33.7,5.22-1.42.44-7.33,2.68-8.77,3.05-.07-.53-.03-1.28.17-1.57.39-.56,5.68-2.31,6.34-2.55C77.64,1.48,91.14-1.44,105.33.72c8.11,1.23,13.66,5.3,16.93,13.26,7.41,18.04,20.45,29.97,39.91,34.13,1.8.38,3.71.3,5.56.44-.42,4.44-4.76.68-6.23,2.96.2.99,3.17,1.65.68,2.82-2.6,1.22-1.56,2.84-1.2,4.54.02.26.04.52.06.78-1.15,1.56-4.42-.02-4.54,3.06-2.73-.09-2.45,2.16-2.95,3.8-.02.24-.04.48-.05.72-.24.48-.48.96-.72,1.44-.74-.01-1.48-.02-2.23-.03,0-.48,0-.96-.01-1.44.69-.48.68-.98.04-1.5-.33-2.32-2.07-2.26-3.79-2.23,0-.26,0-.51-.01-.77,1.11-.77.61-1.95.76-2.97.09-.08.28-.17.27-.22-.05-.2-.16-.39-.25-.58,0-.27-.01-.55-.02-.82,1.24.05,2.48.1,3.72.15-.28.49-.86,1.04-.78,1.46.13.65,1.12.89,1.47.5,1.29-1.43,3.37-.84,4.95-1.85-1.13-1.36-2.4-.69-3.51-.83-3.72.61-6.67-2.13-10.21-2.33-.91-.76-1.88-1.39-3.11-1.47h0c-.82-1.46-2.22-1.95-3.74-2.24h0c-.38-1.06-1.37-1.39-2.25-1.85,0-.13,0-.25,0-.38.26-.26.51-.51.77-.77,1.46.78,2.92,1.56,4.38,2.34.8.61,1.52,1.53,2.77.93-.31-1.21-1.26-1.31-1.99-1.7-.5-.39-.82-.86-.72-1.53,4.62,1.29,8.49,4.76,13.65,4.6-5.28-2.09-10.36-4.52-15-7.77-.41-.29-1.1-.55-1.27-.05-.16.48.23,1.14.38,1.72-2.28,0-3.57-1.14-3.93-3.37,1.94.61,1.51-.9,1.69-1.88,1.07-.13,1.72-.52.88-1.64-.52-.7-1.05-1.38-1.02-2.31.53.1,1.06.19,1.59.29.25.24.49.49.74.74.13.08.26.16.38.24-.09-.12-.17-.24-.26-.36-.25-.25-.49-.49-.73-.74-1.23-2.76-3.24-4.75-5.99-5.98-.12-.03-.25-.07-.37-.1.08.07.17.15.25.22.11.75.22,1.5.34,2.25-.58-.17-1.34-.65-1.71-.44-.76.44-.09,1.15.24,1.53,1.85,2.14,3.78,4.22,5.68,6.32-1.12.23-2.01-.37-2.94-.81-.25-.24-.5-.49-.75-.73-.25-.25-.49-.5-.74-.75-.25-.25-.5-.49-.75-.74-.74-1.26-1.2-2.79-3-2.98-.02-.62-.21-1.14-.77-1.47,0-.23-.03-.45-.09-.68-.46-.53-.92-1.05-1.39-1.58-.75-1.97-1.78-3.75-3.43-5.14,1.13,1.73.83,4.35,3.34,5.22.02.82.03,1.64.82,2.16l.35.05h.35c0,.62.19,1.14.74,1.49.71,1.28,1.16,2.82,2.96,3.03.25.25.49.5.74.75.25.24.51.49.76.73.24.25.49.5.73.75.4.8.8,1.59,1.19,2.39-1.23-.08-2.46-.15-3.69-.23-.13-.14-.26-.27-.4-.4.11-.76-.01-1.43-.77-1.83,0,0,.01.02.01.02-.25-.25-.51-.51-.76-.76,0,0,.02.01.02.01.03-.24,0-.48-.08-.7-.43-.92-1.04-1.59-2.17-1.54h0c.05-.65-.14-1.18-.75-1.49h0c-.04-1.06-.52-1.81-1.5-2.25,0,0,0,.01,0,.01-.26-.73-.52-1.46-.78-2.19-.54-.86-.55-2.12-1.9-2.46-.5,1.41.35,2.28,1.13,3.17.04.22.07.45.09.68-.87,1.09-2.15.71-3.27.92-.21-.25-.41-.5-.62-.74,1.01-.97,1.68-1.96.18-3.07-.07-.96-.13-1.92-.2-2.88.69-.22,1.47-.37,1.44-1.32-.02-.77-.64-.92-1.25-1.05-.46-2.67-2.91-3.57-4.59-5.15.29-.3.57-.6.86-.89Zm11.86,6.8c.1.04.2.09.3.13-.09-.06-.17-.12-.26-.17-.1-.05-.2-.09-.31-.14.09.06.18.12.27.18Zm24.66,36.56c.47-.15,1.17.35,1.4-.48-.46-.09-.92-.17-1.38-.26-.31.12-.61.24-.92.36l.9.39Zm-22.41-34.34c-.26-.18-.53-.37-.79-.55,0,.18,0,.36,0,.54.24.9.3,1.96,1.88,1.92-.41-.72-.75-1.31-1.08-1.91Zm11.98,13.42c.26-.26.51-.52.77-.77-.49-.58-1.03-1.76-1.8-.94-.79.83.41,1.28,1.03,1.72Zm-14.96-12.68c-.1-.05-.19-.11-.29-.16.1.05.19.11.29.16.27,1.45.68,2.8,2.65,3.76-.48-1.96-1.32-3.02-2.65-3.75Zm23.12,25.46c1.1.96,2.26,1.69,3.94,1.11-1.14-1.29-2.53-1.13-3.83-1.24-1.42-1-2.78-2.18-5.02-1.83,1.48,1.75,3.15,1.97,4.92,1.96Zm2.34-4.61c-.53-.46-1.06-.92-1.59-1.38-2.03-.98-4.07-1.96-6.1-2.94,1.27,2.23,3.27,3.04,5.37,3.67.57.73,1.4.72,2.2.78,1.95,1.72,4.33,1.78,6.74,1.74-2.05-1.19-4.27-1.77-6.63-1.87Zm-6.27-6.33c3.8,3.74,10.73,6.42,15.34,5.8-6.07-1.21-10.51-3.94-15.34-5.8Zm-3.7.74c-.08.2-.28.46-.21.58.09.16.38.2.58.3.08-.2.28-.46.21-.58-.08-.16-.38-.2-.58-.3Zm-1.55-.84c-.09-.21-.13-.51-.29-.59-.14-.07-.4.11-.61.18.09.21.13.51.29.59.14.07.4-.11.61-.18Zm3.74-.77c-.09-.21-.14-.51-.3-.59-.14-.07-.41.11-.62.19.09.21.14.51.3.59.14.07.41-.11.62-.19Zm-19.18-15.34c.08-.04.17-.08.25-.13-.15-.02-.31-.03-.46-.05.07.06.14.12.21.18Z"/>
  <path class="cls-1" d="m125.12,211.33c-1.91,7.4-7.32,10.97-14.25,12.53-12.81,2.89-25.21.56-37.25-3.84-13.5-4.93-25.4-12.51-35.32-22.95-3.23-3.4-6.35-7.02-7.41-11.85.57-.01,1.13-.02,1.7-.03,2.22,3.13,3.89,6.59,6.56,9.46,14.66,15.8,32.92,24.58,54.01,27.65,5.89.86,11.94.84,17.8-.68,3.98-1.03,7.66-2.65,9.63-6.74-.47-.21-.72-.43-.9-.38-.58.16-1.16.37-1.7.65-6.05,3.13-12.58,4.02-19.2,3.33-17.76-1.86-33.49-9.17-48.09-19-6.6-4.44-12.65-9.66-16-17.25.32-.35.64-.69.95-1.04,2.07,2.62,3.84,5.44,6.15,7.91,9.6,10.22,21.73,16.35,34.44,21.55,10.69,4.37,21.63,7.41,33.33,5.19,5.49-1.04,10.66-2.7,12.51-8.91,1.07-1.11.97-1.9-.63-2.27.11-.68.88-1.38.28-2.01-.63-.66-1.35-.1-1.95.29-2,1.28-4.21,1.81-6.54,2-.02-.37-.05-.74-.07-1.11,3.47-1.55,7.02-2.97,9.6-5.95,1.7.19,2.12-1.45,3.15-2.21.16,1.82-.36,3.36-1.89,4.47-.48.28-1.21.46-1.38.87-.24.58.45.58.88.62,2.07.42,1.93,1.94,1.1,3.08-1.8,2.47-1.07,4.53.49,6.64Z"/>
  <path class="cls-1" d="m39.94,18.65c-3.54,4.05-8.53,6.21-12.56,9.62C15.97,37.91,6.61,48.97,3.05,63.94c-3.22,13.54,3.65,30.45,15.22,37.8,1.02,1.64,2.81,2.32,4.27,3.42,4.48,3.38,8.27,7.3,9.99,12.83-.46.23-.92.46-1.39.69-3.3-7.71-10.06-12.09-16.28-17.01C.22,90.06-4,70.75,3.97,53.97c6.74-14.2,17.31-24.75,30.19-33.26,1.69-1.12,3.45-2.52,5.78-2.06Z"/>
  <path class="cls-1" d="m31.14,118.67c.46-.23.92-.46,1.39-.69,3.86,8.56,4.68,17.64,4.52,26.87-.2,1.71-.4,3.42-.61,5.13-.07,1.79-.15,3.58-.22,5.36-.52,2.19-1.04,4.38-1.55,6.57l1.07.15c.49-2.24,1.32-4.41,1.23-6.77.42-1.73.99-3.44.66-5.27.04-1.72.07-3.44.11-5.16.23-2.83.95-5.62.65-8.49,1.72.32,1.1,1.71,1.44,2.78.84,2.61-1.85,5.55.87,7.88-.25.98-.5,1.96-.74,2.95-2.35,1.57-1.16,4.02-1.51,6.09-.7.73-1.07,1.49-.14,2.44.26-.28.6-.48.68-.76.15-.55.15-1.15.21-1.72.25-.25.49-.51.74-.76,0,0,.1.09.1.09-.02.21-.01.42,0,.63-.02.77-.03,1.54-.05,2.31-.11.62-1.05,1.55.01,1.75.87.16.6-1.08.71-1.75.26,0,.52,0,.78,0-.02,1.46-.04,2.91-.07,4.37-.85,1.97-.64,4.04-.63,6.1-.4.05-.8.11-1.19.16-1.12-1.07-2.18-1.53-2.47.56-.16,1.2.02,2.45.05,3.68-.32.03-.64.05-.96.08-.64-.19-.43-1.42-1.48-1.21v8.67c-2.38-.47-1.24-3.32-2.89-4.48-.71,3.2.04,6.07.73,8.94-.57.01-1.13.02-1.7.03-2.44-4.08-1.8-8.23-.53-12.52,4.48-15.16,6.19-30.52,2.95-46.17-.55-2.65-1.43-5.24-2.16-7.86Zm1.72,54.8c-.08-.2-.14-.4-.24-.58-.02-.04-.3,0-.31.05-.05.2-.05.41-.06.61.21-.03.41-.05.62-.08Z"/>
  <path class="cls-1" d="m156.31,182.54c-8.41-.62-15.07,3.07-21,8.54-1.08,1-2.06,2.1-3.1,3.15-3.08-.97.39-4.07-1.89-5.44-1.19.76-1.72,2.75-3.67,2.45.94-2.02.46-4.03-.03-6.04,0-.25,0-.5,0-.75,1.25-.8,2.42,2.21,3.78.02.83-1.34,1.96-2.5,2.95-3.74,0-.25.01-.51.02-.76l-.03.03c.5,0,1.01-.01,1.51-.02.26,1.95,1.81,1.33,2.97,1.48.16.95.35,1.84,1.54.81,4.53-2.25,9.03-4.56,14.21-5.17-2.11-1.21-4.06-.83-6.11-.1-2.2.78-4.16,2.3-6.64,2.24,3.21-3.51,7.85-3.74,12.56-5.04-1.92-1.15-3.29-.65-4.73-.48-3.38.39-5.86,3.23-9.32,3.28,0-.5,0-1,.01-1.49h0c4.84-1.01,9.14-4.3,14.44-3.46.09.01.29-.62.43-.95.97.48,1.95.96,2.92,1.44.46.57.84,1.23,1.67,1.34,1.48.54,2.97,1.07,4.45,1.61-.25.47-.5.95-.75,1.42-.77-.09-1.54-.17-2.31-.26-.49-1.45-1.27-1.33-2.19-.39-.85-.33-1.99-1.07-2.14.53-.15,1.57-1.62,1.56-2.31,2.43-7.52.12-13.22,3.85-18.28,8.87,6.24-4.09,12.73-7.48,20.38-8.09,1,.65.83,1.6.67,2.55Zm-22.96,5.65c.05-.08.1-.16.15-.24-.05.08-.09.17-.14.25l-.15.25c.05-.09.09-.17.14-.26Zm1.08-2.43c1.48-.33,2.14-.94,2.51-2.35-1.32.4-1.9,1.11-2.51,2.35Zm-2.26.79c-.03.08-.06.16-.09.24.07.03.18.09.2.07.05-.06.07-.15.1-.23-.07-.03-.14-.05-.21-.08Z"/>
  <path class="cls-1" d="m160.99,58.86c-.36-1.7-1.4-3.31,1.2-4.54,2.48-1.17-.48-1.83-.68-2.82,1.47-2.27,5.81,1.48,6.23-2.96,3.4,0,6.5-1.39,9.72-2.2-.1,1.08.27,2.05.75,2.98-.71.02-1.42.05-2.13.07-1.71-.22-2.62.19-1.66,2.09-1.09.24-2.46-.52-3.26.89.89,1.12,2.52.22,3.31,1.38-.25,0-.5,0-.75,0-1.84.02-3.69-.06-5.53.07-2.47.17-.44,1.41-.45,2.16-1,.01-1.99.03-2.99.04-.54.09-1.23.13-1.07.88.05.25.69.38,1.07.57.24,0,.48.01.72.01-.02.44-.03.88-.05,1.32-1.48.01-2.95.03-4.43.04Z"/>
  <path class="cls-1" d="m126.66,191.23c1.94.3,2.47-1.69,3.66-2.45,2.29,1.37-1.19,4.47,1.89,5.44-3.22,5.35-4.74,11.4-7.1,17.1-1.57-2.1-2.29-4.17-.49-6.64.83-1.14.97-2.66-1.1-3.08.17-.5.34-.99.51-1.49,1.53-1.11,2.05-2.65,1.89-4.47.69-.88,1.93-1.64.67-2.97.02-.49.04-.97.07-1.46Z"/>
  <path class="cls-1" d="m153.55,179.21c.69-.87,2.16-.86,2.31-2.43.15-1.59,1.29-.85,2.14-.53.45.86,1.12,1.44,2.12,1.54.46.43.92.87,1.38,1.3-.73.33-1.41.95-1.01,1.68,1.24,2.28,1.48,5.22,4.12,6.63-.62.71-1.11,1.59-2.22,1.6-2.03-2.16-4.05-4.31-6.08-6.47.17-.95.33-1.9-.66-2.55-.51-.76-1.33-.71-2.1-.78Z"/>
  <path class="cls-1" d="m57.91,10.5c-4.23,2-14.62,7.09-18.85,9.09-.36-.35-1.4-.35-1.76-.7,4.04-3.3,15.72-8.38,20.58-9.96,0,.52.01,1.05.02,1.57Z"/>
  <path class="cls-1" d="m57.91,10.5c0-.52-.01-1.05-.02-1.57.75,0,1.49,0,2.24,0-.24,1.23-1.26,1.36-2.22,1.57Z"/>
  <path class="cls-1" d="m18.38,99.93c-3.65-4.25-7.13-8.59-9.09-13.94-5.43-14.82-1.17-27.86,7.55-39.95,12.19-16.9,29.51-26.61,48.43-33.99,11.84-4.62,24.05-7.02,36.83-6.21,4.25.27,8.24,1.07,11.74,3.33-.11.83-.4,1.05-.8.88-12.13-5.06-24.25-2.6-36.17.55-19.16,5.05-36.59,13.63-50.83,27.7-7.13,7.04-12.86,15.18-15.59,25.04-3.59,12.96-.3,24.3,8.59,34.11,1.96,2.16,3.74,4.69,6.72,5.71.73,1.1,1.57,2.04,3.01,2.15l-.02-.02c.78.99,1.55,1.97,2.32,2.96-.29.3-.58.59-.87.89-3.94-3.07-7.88-6.14-11.82-9.21Z"/>
  <path class="cls-1" d="m39.95,150c.25-.98.5-1.96.74-2.95.23-4.22.46-8.44.69-12.66.14-6.48-.4-12.91-2.93-18.92-1.9-4.51-4.09-9.08-9.71-10.19,0,0,.02.02.02.02-.03-1.93-1.36-2.64-2.95-3.07-3.84-3.78-6.84-8.1-9.03-13.05-5.4-12.23-3.52-23.84,3.04-34.94,10.43-17.65,26.6-28.15,45.13-35.59,3.56-1.43,21.03-6.31,24.92-6.8,0,.51-.17.61-.17,1.12-20.76,3.47-38.48,13.33-49.16,21.44-11.45,8.69-20.51,19.2-24.05,33.49-3.06,12.33,3.44,28.25,13.74,34.61,4.07,3.44,7.96,6.94,9.99,12.17,2.66,6.88,2.81,14.01,2.89,21.2-.09,2.5-.17,5-.25,7.5-.87,2.67-1.39,5.4-1.39,8.21-1.15,1.08-.6,2.5-.77,3.77-.22,0-.44,0-.66,0,0,0-.1-.09-.1-.09,0-1.76.02-3.52.03-5.28Z"/>
  <path class="cls-1" d="m114.01,19.34c-.29.3-.57.6-.86.89-5.32-1.98-10.81-2.83-16.46-2.13-21.28,2.65-40.39,10.56-56.41,24.86-10.75,9.6-18.78,21.12-17.52,36.58.94,11.61,7.42,19.94,17.02,26.08,2.04,4.02,5.08,7.6,5.39,12.37-.44.24-.87.48-1.31.72-1.14-3.88-2.07-7.89-5.24-10.76-2.72-2.47-5.52-4.85-8.29-7.27-6.65-7.88-10.87-16.67-9.74-27.28,1.02-9.62,5.57-17.69,11.66-24.96,10.61-12.66,24.55-20.35,39.61-26.34,9.08-3.61,18.57-5.56,28.29-6.17,4.85-.3,9.62.72,13.85,3.42Z"/>
  <path class="cls-1" d="m28.75,105.29c5.62,1.12,7.81,5.68,9.71,10.19,2.53,6.01,3.07,12.44,2.93,18.92-.45,0-.91,0-1.36,0-.33-4.43-.25-8.95-3.2-12.86.53,4.64,1.07,9.27,1.6,13.91-.01.31-.02.63-.03.94.29,2.87-.42,5.66-.65,8.49-.23,0-.46-.01-.69-.02.16-9.24-.66-18.31-4.52-26.87-1.72-5.53-5.51-9.44-9.99-12.83-1.46-1.1-3.25-1.79-4.27-3.42.04-.6.07-1.2.11-1.8,3.94,3.07,7.88,6.14,11.82,9.21.14.1.3.15.47.16,1.77,3.21,3.54,6.43,5.32,9.64.19.34.16,1.14.78.76.46-.28.05-.83-.29-1.18-.3-4.03-2.04-7.28-5.24-9.76-.02-.18-.08-.35-.18-.5-.77-.99-1.55-1.97-2.33-2.96Z"/>
  <path class="cls-1" d="m45.18,117.99c-.32-4.77-3.36-8.35-5.39-12.37.14-.2.31-.38.49-.53,3.06,1.52,5.08,4.06,6.03,7.2,2.9,9.61,2.1,19.22-.42,28.78-.18-.01-.36-.03-.54-.05-.14-1.36.42-2.87-.92-3.95-.1-.78-.62-1.09-1.33-1.19-.08-7.18-.23-14.32-2.89-21.2-2.02-5.23-5.91-8.73-9.99-12.17.04-.61.08-1.22.12-1.84,2.77,2.42,5.57,4.81,8.29,7.27,3.17,2.88,4.1,6.88,5.24,10.76,1.13,5.28.41,10.74,1.3,16.05,2.22-5.65.93-11.21.01-16.77Z"/>
  <path class="cls-1" d="m116.37,8.18c2.61.87,2.9,3.12,3.57,5.77-1.05-.6-1.66-.95-2.26-1.3-.27-.22-.54-.44-.81-.66,0,0,.01-.01.01-.01-.25-.25-.49-.49-.74-.74,0,0,0-.01,0-.01-.28-.31-.56-.63-.84-.94.36-.7.72-1.4,1.07-2.1Z"/>
  <path class="cls-1" d="m25.81,102.23c1.6.44,2.92,1.14,2.95,3.07-1.44-.11-2.28-1.05-3.01-2.15.02-.31.04-.62.06-.93Z"/>
  <path class="cls-1" d="m116.86,11.99c.27.22.54.44.81.66-.04.34-.09.69-.13,1.04-.49-.46-.92-.94-.68-1.7Z"/>
  <path class="cls-1" d="m115.29,10.28c.28.31.56.63.84.94-.61-.02-.89-.33-.84-.94Z"/>
  <path class="cls-1" d="m116.13,11.23c.25.25.49.49.74.74-.51.02-.77-.22-.74-.74Z"/>
  <path class="cls-1" d="m189.25,53.75c5.25,3.91,11.11,6.95,15.48,12.08,8.6,10.1,10.81,21.41,7.53,34.12-1.63,6.31-4.14,12.26-6.68,18.19-2.77,6.45-3.95,13.02-3.44,20,.99,13.45-2.78,25.65-10.56,36.51-4.18,5.83-9.35,10.67-16.84,12.19-1.99.4-3.89.64-5.89.16-1.15-.28-2.45-.77-3.44.48-.26-.02-.52-.04-.79-.06-2.65-1.41-2.88-4.35-4.12-6.63-.4-.73.28-1.35,1.01-1.68,6.02,1.59,11.9,1.76,16.91-2.65,12.41-10.93,16.94-25,15.82-41.13-.22-3.24-.43-6.39.13-9.63,1.24-7.08,4.75-13.32,7.16-19.97,2.79-7.69,5.07-15.57,3.06-23.69-3.11-12.57-11.96-20.25-23.39-25.36.35-.59.53-1.2.12-1.85l-.13-.3c2.83,1.54,5.86,2.81,8.46,4.66,10.24,7.29,18.04,16.24,17.62,29.76-.23,7.52-2.43,14.72-5.57,21.54-3.8,8.24-6.67,16.58-5.51,25.89,1.33,10.66-1.62,20.56-6.71,29.68-5.2,9.32-11.94,17.06-24.2,16.19-.29-.02-.6.27-.94.43.35,1.49,1.57,1.53,2.58,1.82,6.98,2.05,13.1-.3,17.82-5,10.93-10.88,16.39-24.44,15.53-39.78-.44-7.86.57-15.03,3.48-22.15,1.79-4.37,3.62-8.73,5.19-13.18,5.63-16.01,3.04-30.03-10.07-41.6-3.68-3.24-8.26-5.01-12-8.09.79-.31,1.58-.63,2.38-.94Z"/>
  <path class="cls-1" d="m181.96,50.09c2.11.68,4.54.46,6.27,2.21-.37.24-.73.48-1.09.72-1.86-.08-3.61-.53-5.18-1.57,0-.45,0-.91,0-1.36Z"/>
  <path class="cls-1" d="m174.45,53.76c-.79-1.16-2.42-.26-3.31-1.38.8-1.41,2.18-.64,3.26-.89,1.37-.04,2.3.52,2.58,1.93,0,0-.1.3-.1.3-.81.01-1.62.02-2.43.03Z"/>
  <path class="cls-1" d="m176.89,53.72s.09-.31.1-.3c1.94-.53,3.88-.91,5.72.32-.51.26-1.02.52-1.52.78,0,0,.13.3.13.3-1.4-.42-2.8-.67-4.25-.29,0,0-.01,0-.01,0-.05-.27-.11-.53-.16-.8Z"/>
  <path class="cls-1" d="m181.96,50.09c0,.45,0,.91,0,1.36-1.81-1.14-4.6.53-5.9-2.05.71-.02,1.42-.05,2.13-.07,1.09,1.06,2.52.47,3.77.76Z"/>
  <path class="cls-1" d="m189.41,49.02c0,.34-.01.68-.02,1.02-1.08-.1-2.26,0-2.84-1.5,1.16-.93,1.98.04,2.86.48Z"/>
  <path class="cls-1" d="m183.43,48.52h-3.52c1.56-1.04,2.58-.66,3.53-.7-.01.23-.02.46-.01.7Z"/>
  <path class="cls-1" d="m183.43,48.52c0-.23,0-.47.01-.7.32.12.64.24.96.37-.32.11-.65.22-.97.33Z"/>
  <path class="cls-1" d="m187.15,53.02c.36-.24.73-.48,1.09-.72-.36.24-.73.48-1.09.72Z"/>
  <path class="cls-1" d="m156.51,62.71c.12-3.08,3.39-1.5,4.54-3.06,1.73.28,3.45.57,5.18.85,2.66,1.33,5.48,2.42,7.95,4.03,9.58,6.25,16.86,16.71,12.55,29.79-1.95,5.92-4.38,11.62-6.88,17.3-2.09,4.77-3.12,9.68-1.93,14.87,2.75,12.01-.16,22.95-6.82,32.93-2.53,3.79-5.77,7.25-10.84,7.84-.17-.66-.34-1.31-.52-1.97,1.8-.08,3.41-.7,4.8-1.83,10.09-8.2,13.52-19.47,12.18-31.58-1.04-9.41-.53-17.92,3.83-26.3,1.71-3.28,2.83-6.89,4.08-10.39,3.76-10.55.73-19.29-7.48-26.4-4.35-3.77-9.16-6.76-15.87-6.75,1.63,1.51,3.08,1.84,4.44,2.37,12.09,4.72,18.14,16.92,14.4,29.25-1.41,4.64-3.32,9.1-5.46,13.46-2.57,5.23-4.42,10.69-2.85,16.53,2.63,9.76,1.05,18.96-3.05,27.91-3.69,8.05-9.06,11.55-16.74,11.1-.96-.85-2.67-.73-3.07-2.32,6.79,2.55,12.08.07,15.74-5.52,5.63-8.58,8.51-18.13,5.86-28.31-1.79-6.86-.79-12.94,2.1-19.07,2.33-4.94,4.24-10.05,6.14-15.17,5.31-14.35-11.06-29.02-21.46-27.94-.27-.54-.54-1.07-.81-1.61Z"/>
  <path class="cls-1" d="m36.08,80.41c.51-10.83,4.97-19.49,12.07-26.85,12.83-13.3,28.93-20.8,46.92-24.35,8.05-1.59,15.88-1.33,22.5,4.51,1.01-.97,1.68-1.96.18-3.07-5.51-2.34-11.06-4.31-17.25-3.85-8.29.62-16.17,2.76-23.78,5.93-14.58,6.08-27.62,14.12-36.43,27.87-9.89,15.43-8.09,31.62,5.48,44.07,3.69,3.38,5.31,7.4,5.44,12.19.07,2.61-.05,5.22-.09,7.84-.24,2.5-.49,4.99-.73,7.49,3.26-1.39,1.66-4.55,2.48-6.83,0-.5-.03-1,0-1.49.59-8.01-.25-15.26-6.81-21.32,0,0-10.71-6.98-9.99-22.13Z"/>
  <path class="cls-1" d="m146.1,157.6c2.41-.47,4.9-.7,7.23-1.45,6.12-1.97,8.79-7.1,10.42-12.69,2.15-7.35,2.96-14.81.2-22.3-1.81-4.91-.26-9.54,1.76-14.03,2.45-5.43,4.91-10.84,6.91-16.48,1.54-4.36,1.13-8.38-1.1-12.15-4.03-6.82-9.52-11.66-17.96-11.98.5-1.64.22-3.89,2.95-3.8.27.54.54,1.07.81,1.61,2.84,2.13,6.4,2.87,9.19,5.24,6.42,5.46,11.17,13.89,7.23,23.44-2.04,4.94-4.16,9.82-6.44,14.65-2.06,4.35-3.41,8.87-1.57,13.65,1.98,5.15,1.99,10.36,1.28,15.74-1.85,13.99-7.52,20.25-20.23,21.94-.23-.46-.46-.92-.69-1.38Z"/>
  <path class="cls-1" d="m147.56,58.11c0,.27.01.55.02.82-2.47-.76-4.95-1.52-7.42-2.28-.56-.7-1.39-.71-2.17-.83-1.53-2.06-3.52-3.32-6.11-3.55h-.02c.07-1.58-1.2-1.99-2.24-2.59-.39-.38-.78-.76-1.17-1.14-.51-.46-1.05-.86-1.8-.75h-.02c-.24-.26-.49-.5-.73-.75v-.02c.1-.75-.3-1.29-.76-1.81-.13-.14-.26-.28-.4-.42-.97-.91-1.23-2.43-2.59-3,0,0,.01.01.01.01-.25-.25-.51-.51-.76-.76h0c0-.63-.19-1.16-.76-1.51l.02.03c0-.25-.02-.51-.02-.76.29-.01.59-.03.88-.04.46.02.93.03,1.39.05l-.02-.02c.21,1.41.54,2.72,2.26,3,0,0-.01-.01-.01-.01.25.25.51.51.76.76,0,0-.01-.02-.01-.02.25.59.51,1.19.76,1.78.64.65,1.29,1.3,1.93,1.95.5.47,1.04.86,1.78.75,0,0,.02,0,.02,0,.18,2.08,1.59,2.37,3.28,2.25.15,0,.31-.01.46-.01,0,.13-.01.25,0,.38-.07,1.61.88,1.99,2.25,1.86,0,0,0,0,0,0,.46,2.06,2.05,2.24,3.74,2.25,0,0,0,0,0,0,.02,1.54,1.19,1.43,2.21,1.53,1.37,1.66,3.82,1.32,5.26,2.84Z"/>
  <path class="cls-1" d="m128.58,46.28c-.64-.65-1.29-1.3-1.93-1.96.07-.73-.06-1.38-.76-1.78,0,0,.01.02.01.02-.25-.25-.51-.51-.76-.76,0,0,.01.01.01.01-.14-1.46-1.07-2.33-2.26-3,0,0,.02.02.02.02-.44-.64-.9-.85-1.39-.05-.29.01-.59.03-.88.04-.5-.25-1-.51-1.5-.76l.03.03c.08-.86.04-1.68-.68-2.3-.1-.45-.2-.89-.3-1.34,1.11-.21,2.4.17,3.26-.92.49.27.97.54,1.46.81,0,0,0-.01,0-.01-.02,1.09.45,1.87,1.5,2.25,0,0,0,0,0,0-.03.64.15,1.17.75,1.49,0,0,0,0,0,0,.02,1.06.57,1.78,1.49,2.24.25,0,.5,0,.76,0,0,0-.02-.01-.02-.01.25.25.51.51.76.76,0,0-.01-.02-.01-.02.26.61.51,1.22.77,1.83.14.13.27.26.4.4,1.13,1.23,2.26,2.45,3.39,3.68l-.21.22c-.7-.05-1.4-.09-2.1-.14,0,0-.02,0-.02,0-.39-.74-1.05-.83-1.78-.75Z"/>
  <path class="cls-1" d="m137.09,47.05c-.15-.58-.54-1.24-.38-1.72.17-.5.86-.24,1.27.05,4.65,3.25,9.72,5.68,15,7.77-5.16.16-9.02-3.32-13.65-4.6,0,0,0,0,0,0-.41-1.01-1.19-1.47-2.25-1.5h0Z"/>
  <path class="cls-1" d="m134.86,41.81c-1.9-2.1-3.83-4.18-5.68-6.32-.33-.38-1-1.09-.24-1.53.37-.21,1.13.27,1.71.44,1.92.49,2.91,2.06,4.07,3.45-.03.93.49,1.61,1.02,2.31.84,1.12.19,1.51-.88,1.64,0,0,0,0,0,0Z"/>
  <path class="cls-1" d="m144.32,43.63c4.84,1.86,9.28,4.6,15.34,5.8-4.62.62-11.54-2.06-15.34-5.8Z"/>
  <path class="cls-1" d="m132.69,46.96c-1.13-1.23-2.26-2.45-3.39-3.68,1.23.08,2.46.15,3.69.23,0,0,.17.18.17.18.36,2.23,1.65,3.38,3.93,3.37,0,0,0,0,0,0,.1,1.47,1.09,1.62,2.25,1.5,0,0,0,0,0,0-.1.67.22,1.15.72,1.53-.26.26-.52.51-.78.77-1.46-.78-2.92-1.56-4.38-2.34-.48-.87-1.24-1.35-2.2-1.54Z"/>
  <path class="cls-1" d="m134.71,37.85c-1.16-1.39-2.15-2.96-4.07-3.45-.11-.75-.22-1.5-.33-2.25l.12-.12c2.76,1.24,4.76,3.22,5.99,5.98l-.13.13c-.53-.1-1.06-.19-1.58-.29Z"/>
  <path class="cls-1" d="m147.56,58.11c-1.44-1.52-3.89-1.18-5.26-2.84.3-.02.6-.03.9-.05,3.53.2,6.49,2.94,10.21,2.33-.53.78-1.37.65-2.14.71-1.24-.05-2.48-.1-3.72-.15Z"/>
  <path class="cls-1" d="m151.27,58.26c.77-.06,1.61.07,2.14-.71,1.11.14,2.38-.53,3.51.83-1.58,1-3.66.41-4.95,1.85-.35.39-1.35.15-1.47-.5-.08-.42.49-.97.78-1.46Z"/>
  <path class="cls-1" d="m146.79,62.7c0,.26,0,.51.01.77-.08,1.49,1.54,1.19,2.38,2.25h-3.14c-.82,0-1.65.06-2.25-.66-.1-1.65.65-2.46,2.33-2.35h.34s.34,0,.34,0Z"/>
  <path class="cls-1" d="m140.15,56.66c2.47.76,4.95,1.52,7.42,2.28.09.19.2.38.25.58.01.05-.17.15-.27.22-.49,0-.98,0-1.47-.01-1.22-.28-2.43-.56-3.64-.84-.82-.67-1.63-1.34-2.45-2.01l.16-.22Z"/>
  <path class="cls-1" d="m148.28,49.31c-2.1-.63-4.1-1.44-5.37-3.67,2.03.98,4.07,1.96,6.1,2.94-.24.24-.48.49-.73.73Z"/>
  <path class="cls-1" d="m146.05,65.72h3.14c-.83-1.05-2.46-.76-2.38-2.25,1.72-.04,3.45-.09,3.79,2.23-1.35,1.29-3.02.58-4.55.75.03-.24.03-.49,0-.73Z"/>
  <path class="cls-1" d="m146.09,59.72c.49,0,.98,0,1.46.01-.15,1.02.35,2.2-.76,2.97,0,0-.34,0-.34,0,0,0-.34,0-.34,0-.6-.75-1.45-.73-2.29-.74-.02-.22-.02-.44-.02-.66,0-.27-.01-.53-.02-.8.83-.06,1.74.08,2.29-.79Z"/>
  <path class="cls-1" d="m150.6,49.96c2.36.1,4.58.68,6.63,1.87-2.41.04-4.79-.02-6.74-1.74,0,0,.11-.13.11-.13Z"/>
  <path class="cls-1" d="m124.34,32.15c-2.5-.87-2.21-3.49-3.34-5.22,1.65,1.38,2.68,3.17,3.43,5.14l-.09.08Z"/>
  <path class="cls-1" d="m148.26,54.57c-1.77.02-3.44-.21-4.92-1.96,2.24-.35,3.6.83,5.02,1.83l-.11.13Z"/>
  <path class="cls-1" d="m150.57,68.63c-.22.06-.44.09-.66.09-1.04-.01-2.09-.03-3.13-.04-.24-.26-.48-.51-.72-.77,0-.24,0-.47,0-.71,1.5,0,3,0,4.49-.01,0,.48,0,.96.01,1.44Z"/>
  <path class="cls-1" d="m166.23,60.5c-1.73-.28-3.45-.57-5.18-.85-.02-.26-.04-.52-.06-.79,1.48-.01,2.95-.03,4.43-.04.29.13.58.27.87.4-.02.43-.04.85-.06,1.28Z"/>
  <path class="cls-1" d="m133.15,43.68s-.17-.18-.17-.18c-.39-.79-.79-1.59-1.19-2.38l.12-.12c.93.45,1.82,1.04,2.94.81,0,0,0,0,0,0-.18.97.24,2.49-1.69,1.88Z"/>
  <path class="cls-1" d="m140.1,53.75c-1.69,0-3.28-.19-3.74-2.25,1.52.29,2.92.78,3.74,2.25Z"/>
  <path class="cls-1" d="m125.14,29.11c1.33.73,2.18,1.8,2.65,3.75-1.97-.95-2.38-2.31-2.65-3.76h0Z"/>
  <path class="cls-1" d="m150.56,67.2c-1.5,0-3,0-4.49,0,0,0,0,0,0,0,0-.26-.01-.52-.02-.77v.02c1.54-.17,3.21.54,4.55-.75.64.52.65,1.02-.04,1.5Z"/>
  <path class="cls-1" d="m116.92,26.13c.27-.25.54-.49.82-.74.6.13,1.23.27,1.25,1.05.03.96-.75,1.1-1.44,1.32,0,0,.09-.09.09-.09-.25-.25-.51-.51-.76-.76,0,0-.01.01-.01.01.02-.26.04-.53.06-.79Z"/>
  <path class="cls-1" d="m148.36,54.44c1.31.11,2.69-.05,3.83,1.24-1.68.58-2.84-.15-3.94-1.11,0,0,.11-.13.11-.13Z"/>
  <path class="cls-1" d="m121.36,32.86c-.78-.89-1.63-1.76-1.13-3.17,1.35.34,1.36,1.6,1.9,2.46-.26.24-.51.47-.77.71Z"/>
  <path class="cls-1" d="m129.57,38.89c-1.8-.21-2.25-1.75-2.96-3.03,0,0,.07-.06.07-.06,1.8.19,2.27,1.72,3,2.98,0,0-.11.11-.11.11Z"/>
  <path class="cls-1" d="m139.26,50.84c.26-.26.52-.51.78-.77.73.39,1.68.49,1.99,1.7-1.26.59-1.97-.33-2.77-.93Z"/>
  <path class="cls-1" d="m143.2,55.22c-.3.02-.6.03-.9.05-1.02-.09-2.19.02-2.21-1.52,1.23.09,2.2.71,3.11,1.47Z"/>
  <path class="cls-1" d="m126.64,40.31c-.92-.46-1.47-1.18-1.49-2.24,1.12-.05,1.73.62,2.17,1.54-.22.23-.45.47-.68.7Z"/>
  <path class="cls-1" d="m140.1,41.79c-.62-.44-1.82-.89-1.03-1.72.77-.81,1.31.37,1.8.95-.26.26-.51.52-.77.77Z"/>
  <path class="cls-1" d="m132.69,46.96c.96.19,1.71.68,2.2,1.54-.26.26-.51.51-.77.77-.15,0-.31,0-.47.01-.39-.7-.79-1.4-1.18-2.11l.21-.22Z"/>
  <path class="cls-1" d="m154.27,69.49c-.61-.07-1.21-.15-1.48-.82.24-.48.48-.96.72-1.44.34.35.68.7,1.01,1.06-.09.4-.17.8-.25,1.2Z"/>
  <path class="cls-1" d="m128.12,28.37c.34.59.67,1.18,1.08,1.91-1.57.04-1.64-1.02-1.88-1.92.26,0,.53,0,.79.01Z"/>
  <path class="cls-1" d="m136.36,51.51c-1.37.13-2.32-.24-2.25-1.86.88.46,1.87.79,2.25,1.86Z"/>
  <path class="cls-1" d="m124.4,36.58c-1.05-.38-1.52-1.15-1.5-2.25.98.43,1.46,1.19,1.5,2.25Z"/>
  <path class="cls-1" d="m148.28,49.31c.24-.24.48-.49.73-.73.53.46,1.06.92,1.59,1.38,0,0-.11.13-.11.13-.81-.06-1.64-.05-2.21-.78Z"/>
  <path class="cls-1" d="m140.62,44.36c.2.09.5.14.58.3.06.12-.13.38-.21.58-.2-.09-.5-.14-.58-.3-.07-.12.13-.38.21-.58Z"/>
  <path class="cls-1" d="m139.07,43.52c-.21.07-.47.25-.61.18-.16-.08-.2-.38-.29-.59.21-.07.47-.25.61-.18.16.08.2.38.29.59Z"/>
  <path class="cls-1" d="m142.81,42.75c-.21.07-.48.26-.62.19-.16-.08-.2-.38-.3-.59.21-.07.48-.26.62-.19.16.08.2.38.3.59Z"/>
  <path class="cls-1" d="m121.36,32.86c.26-.24.51-.47.77-.71.26.73.52,1.46.78,2.19-.49-.27-.97-.54-1.46-.8-.02-.23-.05-.45-.09-.68Z"/>
  <path class="cls-1" d="m124.43,32.07c.46.53.92,1.05,1.39,1.58-.22.22-.44.44-.66.67-.79-.53-.8-1.35-.82-2.16,0,0,.09-.08.09-.08Z"/>
  <path class="cls-1" d="m150.56,61.97l1.38.26c-.23.84-.93.33-1.4.48.02-.25.03-.5.03-.74Z"/>
  <path class="cls-1" d="m125.15,38.07c-.59-.33-.77-.86-.75-1.49.61.32.8.84.75,1.49Z"/>
  <path class="cls-1" d="m128.9,42.88c-.26-.61-.51-1.22-.77-1.83.75.4.88,1.07.77,1.83Z"/>
  <path class="cls-1" d="m123.63,27.41c-.07-.06-.14-.12-.21-.18.15.02.31.03.46.05-.08.04-.17.08-.25.13Z"/>
  <path class="cls-1" d="m128.12,28.37c-.26,0-.53,0-.79-.01,0-.18,0-.36,0-.54.26.18.53.37.79.55Z"/>
  <path class="cls-1" d="m125.9,34.32c.56.33.75.86.77,1.47,0,0-.07.06-.07.06-.55-.35-.74-.87-.74-1.49,0,0,.04-.04.04-.04Z"/>
  <path class="cls-1" d="m150.56,61.97c0,.25,0,.5-.03.74-.3-.13-.6-.26-.9-.39.31-.12.61-.24.92-.36Z"/>
  <path class="cls-1" d="m125.87,26.15c-.09-.06-.18-.12-.26-.18.1.05.2.09.31.14,0,0-.04.04-.04.04Z"/>
  <path class="cls-1" d="m125.91,26.11c.09.06.17.12.26.17-.1-.04-.2-.09-.3-.13,0,0,.04-.04.04-.04Z"/>
  <path class="cls-1" d="m125.14,29.11l-.29-.16c.1.05.19.11.29.16,0,0,0,0,0,0Z"/>
  <path class="cls-1" d="m130.31,32.15c-.08-.07-.17-.15-.25-.22.12.03.25.07.37.1,0,0-.12.12-.12.12Z"/>
  <path class="cls-1" d="m140.1,41.79c.26-.26.51-.52.77-.77-.26.26-.51.52-.77.77Z"/>
  <path class="cls-1" d="m125.16,34.31c.22-.22.44-.44.66-.67.05.22.08.45.09.68,0,0-.04.04-.04.04,0,0-.35,0-.35,0,0,0-.35-.05-.35-.05Z"/>
  <path class="cls-1" d="m130.31,39.64c-.25-.25-.49-.5-.74-.76,0,0,.11-.11.11-.11.25.25.5.49.75.74,0,0-.12.12-.12.12Z"/>
  <path class="cls-1" d="m128.14,41.06c-.25-.25-.51-.51-.76-.76.25.25.51.51.76.76Z"/>
  <path class="cls-1" d="m131.07,40.37c-.25-.24-.5-.49-.76-.73,0,0,.12-.12.12-.12.25.25.49.5.74.75,0,0-.1.1-.1.1Z"/>
  <path class="cls-1" d="m126.64,40.31c.23-.23.45-.47.68-.7.08.23.11.46.08.7-.25,0-.5,0-.76,0Z"/>
  <path class="cls-1" d="m137.15,38.75c.09.12.17.24.26.36-.13-.08-.26-.16-.38-.24,0,0,.12-.12.12-.12Z"/>
  <path class="cls-1" d="m136.42,38.01c.24.25.49.49.73.74,0,0-.12.12-.12.12-.25-.24-.49-.49-.74-.73,0,0,.13-.13.13-.13Z"/>
  <path class="cls-1" d="m131.8,41.12c-.24-.25-.48-.5-.73-.75,0,0,.1-.1.1-.1.25.24.5.49.75.73,0,0-.12.12-.12.12Z"/>
  <path class="cls-1" d="m41.14,170.89c7.22,12.1,19.49,17.09,31.55,22.38,4.32,1.9,8.65,3.78,12.93,5.76,8.77,4.06,17.94,5.67,27.56,4.79.02.37.05.74.07,1.11-5.74,2.3-11.47,1.24-17.13-.21-9.68-2.48-18.34-7.52-27.56-11.16-7.32-2.89-14.28-6.34-20.38-11.36-3.68-3.03-6.87-6.45-8.27-11.18.41-.04.81-.09,1.22-.13Z"/>
  <path class="cls-1" d="m122.78,197.87c.04-.74.08-1.48.12-2.23,0,0-.02.04-.02.04.32,0,.63.01.95.02.92-1,1.84-2.01,2.76-3.01,1.26,1.32.02,2.08-.67,2.97-1.03.76-1.44,2.4-3.15,2.21Z"/>
  <path class="cls-1" d="m119.68,206.57c.6-.64,1.19-1.28,1.79-1.92,1.6.37,1.7,1.15.63,2.27-.88-.2-1.49.39-2.18.74-.08-.36-.16-.73-.24-1.09Z"/>
  <path class="cls-1" d="m124.04,200.12c-.17.5-.34.99-.51,1.49-.43-.05-1.12-.04-.88-.62.17-.41.9-.59,1.38-.87Z"/>
  <path class="cls-1" d="m34.73,180.72c.31.16.62.31.93.47-.32.35-.64.69-.95,1.04,0-.5.02-1,.03-1.51Z"/>
  <path class="cls-1" d="m119.68,206.57c.08.36.16.73.24,1.09-3.16,3.88-7.79,3.97-12.14,4.43-9.53,1-18.44-1.63-27.12-5.23-11.13-4.62-22.4-9.07-31.92-16.66-5.59-4.46-11.27-9.14-12.53-16.93.32-.02.64-.05.96-.08,2.31,2.13,2.71,5.36,4.72,7.78,6.78,8.17,15.69,13.19,25.02,17.65,9.85,4.71,19.9,9.09,30.53,11.54,5.29,1.22,11.09,1.23,16.44-1.07,1.94-.83,3.87-1.67,5.8-2.51Z"/>
  <path class="cls-1" d="m42.18,162.86c-.26-.06-.51-.12-.77-.18.02-1.46.04-2.91.07-4.37.24-.24.48-.49.73-.73,0-.76,0-1.51,0-2.27,0-.23,0-.47,0-.7,1.15-1.08.63-2.49.73-3.77h0c1.03-.8.69-1.94.75-2.99,0,0,0,0,0,0,.25,0,.5,0,.76,0l.76.75c.49,0,.98,0,1.46,0,0,.27.02.53.02.8-.01,1-.03,1.99-.04,2.99-.61-.02-1.12.17-1.46.71-.5.38-1.56.5-.7,1.51,0,.99-.02,1.99-.03,2.98-.98.81-.65,1.93-.69,2.97-1.47.12-1.55,1.19-1.58,2.3Z"/>
  <path class="cls-1" d="m38.39,136.39c.01-.31.02-.63.03-.94.53-.35,1.07-.7,1.6-1.04.45,0,.91,0,1.36,0-.23,4.22-.46,8.44-.69,12.66-2.72-2.33-.03-5.28-.87-7.88-.35-1.07.28-2.46-1.44-2.78Z"/>
  <path class="cls-1" d="m42.21,154.61c0,.23,0,.47,0,.7-.89.76-.92,1.51,0,2.27-.24.24-.49.49-.73.73-.26,0-.52,0-.78,0-.24,0-.48,0-.72,0,.02-.77.03-1.54.05-2.31.22-.21.44-.42.66-.63.17-1.28-.38-2.7.77-3.77,0,0,.37,0,.37,0,0,0,.37,0,.37,0,0,1.01,0,2.01,0,3.02Z"/>
  <path class="cls-1" d="m36.96,155.3c.09,2.37-.74,4.53-1.23,6.77l-1.07-.15c.52-2.19,1.04-4.38,1.55-6.57.25-.01.49-.03.74-.05Z"/>
  <path class="cls-1" d="m39.95,150c0,1.76-.02,3.52-.03,5.28-.25.25-.49.51-.74.76-.25.02-.5.03-.75.05.35-2.07-.84-4.52,1.51-6.09Z"/>
  <path class="cls-1" d="m36.96,155.3c-.25.02-.49.04-.74.05.07-1.79.15-3.58.22-5.36.39.02.79.03,1.18.05.33,1.82-.24,3.54-.66,5.27Z"/>
  <path class="cls-1" d="m37.62,150.04c-.39-.01-.79-.03-1.18-.05.2-1.71.41-3.42.61-5.13.23,0,.46.01.69.02-.04,1.72-.07,3.44-.11,5.16Z"/>
  <path class="cls-1" d="m38.44,156.09c.25-.02.5-.03.75-.05-.06.58-.06,1.17-.21,1.72-.08.28-.42.49-.68.76-.93-.95-.56-1.71.14-2.44Z"/>
  <path class="cls-1" d="m39.98,158.31c.24,0,.48,0,.72,0-.12.67.16,1.91-.71,1.75-1.06-.2-.12-1.14-.01-1.75Z"/>
  <path class="cls-1" d="m32.87,173.47c-.21.03-.41.05-.62.08.02-.2.01-.41.06-.61.01-.05.29-.09.31-.05.11.18.17.38.24.58Z"/>
  <path class="cls-1" d="m41.14,170.89c-.41.04-.81.09-1.22.13-.11-.69-.22-1.39-.33-2.08.4-.05.79-.11,1.19-.16.12.7.24,1.41.36,2.11Z"/>
  <path class="cls-1" d="m40.69,155.37c-.22.21-.44.42-.66.63-.02-.21-.02-.42,0-.64.22,0,.44,0,.66,0Z"/>
  <path class="cls-1" d="m181.21,64.13c9.37,5.36,14.8,17.97,12.44,28.77-1.6,7.34-4.66,14.15-7.58,21-2.42,5.67-2.69,11.33-1.86,17.46,1.83,13.38-2.04,25.27-11.08,35.4-3.84,4.31-8.67,6.06-14.37,5.57-.63-.63-1.16-.47-1.64.19-.97-.48-1.95-.96-2.92-1.44,0,0,.04-.04.04-.04-.33-.58-.87-.74-1.49-.75,0,0-.01,0-.01,0,.01-.26.02-.52.04-.79-.57-1.89-2.19-1.59-3.52-1.53-4.49.22-8.19,2.28-11.42,5.27h.02c-.51.24-1.02.5-1.52.75l.04-.03c-.26.26-.52.52-.78.78,0,0,.03-.02.03-.02-.24,0-.47.01-.7.05-1.28.63-2.24,1.5-2.29,3.05-.47.47-.94.93-1.41,1.4-.28.25-.56.5-.84.75,0,0,0,0,0,0-.25.25-.51.5-.76.76h.01c-.25.24-.5.49-.76.74-.48,0-.97,0-1.45,0,0-.25-.01-.49-.02-.74.56-.41,1.35-.66,1.06-1.65-1.02.13-.98.93-1.1,1.62-.62.33-.71.91-.73,1.52v2.21c0,.25,0,.5,0,.75,0,0,0,.01,0,.01-.49,0-.99,0-1.48,0-.24,0-.47,0-.71,0-.65-.93-1.4-.75-2.26-.29-8.08,4.37-16.03,3.29-23.85-.7-8.83-4.51-17.06-10.3-26.98-12.45,0-.5,0-1.01,0-1.51,7.14.65,13.13,4.2,19.18,7.59,5.83,3.27,11.49,6.9,18.32,7.8,6.27.83,15.11-1.43,16.95-7.08.03-.53.06-1.06.09-1.58l.75-.74c3.91-1.36,5.84-5.16,9.05-7.37.48-.27.95-.55,1.43-.82.26-.23.53-.47.79-.7.26-.23.52-.46.79-.69,4.4-1.11,8.35-4.18,13.27-3.03.03.47.06.95.08,1.42-5.94-.42-11.05,1.32-15.06,5.85-1.83.11-3.05,1.03-3.89,2.73,1.12.23,1.54-.51,2.11-.89.7-.48,1.31-1.09,1.95-1.64.9-.39,1.89-.66,2.7-1.2,5.34-3.51,10.79-4.88,16.6-1.08,5.45,2.58,11.34,1.51,15.48-3.25,8.73-10.03,12.13-21.85,10.45-34.92-.79-6.1-.47-11.81,1.92-17.47,2.13-5.03,4.46-9.96,6.18-15.17,3.42-10.34,2.72-19.81-5.24-27.97-1.65-1.69-3.32-3.34-4.98-5.02l.94-.89Zm-51.13,113.05c.04-.09.07-.18.11-.28-.08-.03-.21-.1-.23-.08-.06.06-.08.17-.11.27.08.03.16.06.24.08Z"/>
  <path class="cls-1" d="m176.71,58.98c-.5-.06-1.01-.12-1.51-.18-1.44-2.4-3.1-2.1-5.13-.27,1.31.53,2.36,1.13,3.63.45.61,2.31,3.59,1.76,4.48,3.73-1.38.42-2.54-.32-3.8-.65-2.78-.72-5.07-2.83-8.09-2.84-.29-.13-.58-.26-.87-.4.02-.44.03-.88.05-1.32.75,0,1.51,0,2.26,0,.17.16.34.32.51.48.07-.12.13-.23.2-.35l-.7-.14c0-.5,0-1,0-1.49,0-.76-2.02-1.99.45-2.16,1.84-.13,3.69-.05,5.53-.07.02.54.03,1.08.05,1.63.79,1.58,2.5,1.47,3.83,2,10.77,4.28,18.55,11.58,22.16,22.7,2.55,7.84.38,15.49-2.16,22.98-2.5,7.39-6.78,14.14-7.68,22.12-.37,3.29.25,6.44.46,9.63.91,13.88-3.27,25.94-12.54,36.26-4.1,4.56-9.1,6.82-15.32,5.82.25-.47.5-.95.75-1.42,9.94-.28,15.35-6.8,19.56-14.59,4.9-9.08,7.01-18.74,5.29-29.14-.87-5.23.1-10.37,2.04-15.34,3.16-8.08,6.88-15.93,8.42-24.63,1.22-6.88-.33-12.9-4.12-18.37-4.3-6.19-9.58-11.4-17.04-13.81-.23-.2-.47-.41-.7-.61Z"/>
  <path class="cls-1" d="m124.43,185.21c.24,0,.47,0,.71,0,.5.68.99.7,1.48,0,0,0,0-.01,0-.01.49,2.01.97,4.02.03,6.04-.02.49-.04.97-.07,1.46-.92,1-1.84,2.01-2.76,3.01-.31-.32-.62-.77-.95-.02,0,0,.02-.04.02-.04-8.09,5.02-16.59,5.61-25.44,2.3.36-.34.71-.67,1.07-1.01,3.93.45,7.82,1.34,11.82.97,4.83-.44,9.28-1.67,12.51-5.63.47-.58,1.04-1.29.45-1.95-.21-.23-1.12.16-1.71.27-.35-.34-.69-.68-1.04-1.03,1.61-1.16,2.98-2.54,3.85-4.35Z"/>
  <path class="cls-1" d="m126.63,184.44c0-.74,0-1.47,0-2.21.26-.25.53-.5.79-.75.48,0,.97,0,1.45,0,1.02.53.61-.4.76-.75,0,0-.01.01-.01.01.25-.25.51-.5.76-.76,0,0,0,0,0,0,.28-.25.56-.5.84-.75.47-.47.94-.93,1.41-1.4,1.05-.7,2.38-1.06,2.98-2.33,0-.25,0-.51,0-.76,0,0-.03.02-.03.02.26-.26.52-.52.78-.78,0,0-.04.03-.04.03.65.02,1.22-.11,1.52-.76,0,0-.02.01-.02.01,1.49-.26,2.99-.52,4.48-.77-.99,1-1.99,2.01-2.98,3.01,0,0,0,0,0,0-2.53.79-4.53,2.29-6,4.49,0,0,.03-.03.03-.03-.09.08-.25.17-.24.22.04.19.15.36.23.54-.99,1.24-2.12,2.4-2.95,3.74-1.36,2.19-2.53-.82-3.78-.02Z"/>
  <path class="cls-1" d="m153.55,179.21c.77.06,1.59.02,2.1.78-7.65.61-14.14,4-20.38,8.09,5.06-5.02,10.76-8.75,18.28-8.87Z"/>
  <path class="cls-1" d="m137.83,181.45c-1.16-.15-2.71.47-2.97-1.48,0,0,0,0,0,0,1.45-.15,2.72-.53,3-2.25h-.02c.65.05,1.2-.11,1.51-.74h-.01c3.47-.04,5.94-2.88,9.32-3.27,1.45-.17,2.82-.66,4.73.48-4.71,1.3-9.35,1.52-12.56,5.04h0c-.25.25-.5.5-.75.75,0,0,0,0,0,0-1.12-.06-2.11.08-2.26,1.49h0Z"/>
  <path class="cls-1" d="m140.83,179.23c2.48.06,4.44-1.46,6.64-2.24,2.05-.73,4-1.11,6.11.1-5.18.61-9.68,2.92-14.21,5.17-.25-.25-.51-.5-.76-.75.49-.51.99-1.03,1.48-1.54,0,0,0,0,0,0,.25-.25.5-.5.75-.75h0Z"/>
  <path class="cls-1" d="m139.34,175.51c.99-1,1.99-2.01,2.98-3.01h0c2.25-.01,4.06-1.26,6-2.13l4.43-.06s.01,0,.01,0c.32.6.86.77,1.49.75,0,0-.04.04-.04.04-.15.33-.34.96-.43.95-5.3-.84-9.6,2.46-14.44,3.47Z"/>
  <path class="cls-1" d="m133.34,179.99c1.48-2.2,3.47-3.7,6-4.49,0,.5,0,1-.01,1.49,0,0,.01,0,.01,0-.63,0-1.18.17-1.51.76,0,0,.02-.01.02-.01-1.46.13-2.37,1-3,2.25,0,0,0,0,0,0-.5,0-1.01.01-1.51.02Z"/>
  <path class="cls-1" d="m160.19,176.65c-.02.38-.05.76-.07,1.15-1.01-.1-1.67-.68-2.12-1.54.92-.93,1.7-1.06,2.19.39Z"/>
  <path class="cls-1" d="m134.43,185.75c.61-1.25,1.19-1.95,2.51-2.35-.37,1.41-1.03,2.03-2.51,2.35Z"/>
  <path class="cls-1" d="m157.13,172.53c.48-.66,1.01-.82,1.64-.19.01.51.02,1.02.03,1.53-.83-.11-1.21-.77-1.67-1.34Z"/>
  <path class="cls-1" d="m138.61,181.51c.25.25.51.5.76.75-1.2,1.03-1.38.14-1.54-.81,0,0,0,0,0,0,.26.02.52.04.78.06Z"/>
  <path class="cls-1" d="m132.17,186.54c.07.03.14.05.21.08-.03.08-.04.17-.1.23-.02.02-.13-.04-.2-.07.03-.08.06-.16.09-.24Z"/>
  <path class="cls-1" d="m133.36,180.72c-.08-.18-.18-.35-.23-.54-.01-.05.16-.15.24-.22,0,.25-.01.51-.02.76Z"/>
  <path class="cls-1" d="m133.37,188.2c.05-.08.09-.17.14-.25-.05.08-.1.16-.15.24h.01Z"/>
  <path class="cls-1" d="m133.35,188.19c-.05.09-.09.17-.14.26.05-.08.1-.17.15-.25,0,0-.01-.01-.01-.01Z"/>
  <path class="cls-1" d="m167.73,56c0,.5,0,1,0,1.49h0c-.75.01-1.51.01-2.26.01-.24,0-.48,0-.73-.01,0-.48,0-.97,0-1.45,1-.01,1.99-.03,2.99-.04Z"/>
  <path class="cls-1" d="m173.75,55.39c-.02-.54-.03-1.08-.05-1.63.25,0,.5,0,.75,0,.81-.01,1.62-.02,2.43-.03.06.27.11.53.16.8-1.1.29-2.2.58-3.3.87Z"/>
  <path class="cls-1" d="m164.74,56.03c0,.48,0,.97,0,1.45-.37-.19-1.01-.32-1.07-.57-.16-.76.53-.79,1.07-.88Z"/>
  <path class="cls-1" d="m30.67,109.3c-.17-.01-.33-.06-.47-.16.29-.3.58-.59.87-.89.1.15.15.32.18.5-.19.18-.38.37-.58.55Z"/>
  <path class="cls-1" d="m42.2,151.59s-.37,0-.37,0c0,0-.37,0-.37,0,0-2.82.52-5.54,1.39-8.21.27-.01.54-.03.81-.04,0,1.5.02,3.01.03,4.51,0,0,0,0,0,0-1.01.81-.69,1.95-.75,2.99,0,0,0,0,0,0-.25.25-.49.5-.74.75Z"/>
  <path class="cls-1" d="m43.66,143.34c-.27.01-.54.03-.81.04.08-2.5.17-5,.25-7.5.71.1,1.23.41,1.33,1.19-.26,2.09-.52,4.18-.78,6.26Z"/>
  <path class="cls-1" d="m45.18,117.99c.91,5.56,2.21,11.12-.01,16.77-.88-5.31-.17-10.77-1.3-16.05.44-.24.87-.48,1.31-.72Z"/>
  <path class="cls-1" d="m40.03,134.41c-.53.35-1.07.69-1.6,1.04-.53-4.63-1.07-9.27-1.6-13.9,2.95,3.91,2.87,8.43,3.2,12.86Z"/>
  <path class="cls-1" d="m31.25,108.75c3.19,2.48,4.93,5.73,5.24,9.76-.16.14-.33.29-.49.43-1.77-3.21-3.54-6.43-5.32-9.64.19-.18.38-.36.57-.55Z"/>
  <path class="cls-1" d="m36.48,118.51c.34.35.74.9.29,1.18-.62.38-.59-.42-.78-.76.16-.14.33-.28.49-.42Z"/>
  <path class="cls-1" d="m46.65,152.39c.01-1,.03-1.99.04-2.99,2.26-3.02-.92-5.51-.79-8.33,2.52-9.56,3.32-19.17.42-28.78-.95-3.14-2.97-5.68-6.03-7.2-8.52-7.9-13.78-17.3-12.92-29.27.7-9.72,5.17-18.08,11.63-24.91,17.51-18.5,39.07-28.69,64.78-29.3,4.23-.1,8.43.68,11.84,3.64-.32.31-.64.62-.96.93-8.98-4.38-18.15-3.16-27.32-.84-17.87,4.51-33.85,12.47-46.37,26.31-6.54,7.23-11.2,15.46-11.59,25.63-.4,10.39,3.72,18.92,11.45,25.23,6.49,5.3,8.61,11.83,8.86,19.58.03.87.06,1.74.09,2.61-.22,2.47-.44,4.93-.66,7.4-.07,1.24-.13,2.48-.19,3.72.21.02.43.04.64.06.29-1.02.58-2.05.87-3.07.64.31.81.88.89,1.52-.26,3.57-1.77,6.94-1.62,10.57h0c-.98.97-1.03,1.95-.03,2.95,0,.52-.01,1.04-.02,1.56-2.79.56-1.62,2.95-2.12,4.57-1.29,3.28-1.24,6.37.8,9.46,2.32,3.51,5.39,6.03,8.99,8.09,3.99,2.29,8.45,3.44,12.56,5.43,0,.52-.02,1.05-.03,1.57-4.56-1.27-9.05-2.76-13.15-5.17-6.08-3.57-11.31-7.83-11.56-15.71.5-1.75,1.01-3.5,1.51-5.24Zm1.51-11.25c-.61.69-1.14,1.39-.18,2.22.68-.62.85-1.41.87-2.25-.03-.7.32-1.48-.57-2.41-.05,1.05-.09,1.75-.12,2.44Z"/>
  <path class="cls-1" d="m45.89,141.07c-.12,2.81,3.06,5.31.79,8.33,0-.26-.02-.53-.02-.79-.1-.65.28-1.73-.72-1.73-.99,0-.63,1.08-.74,1.74-.25-.25-.51-.5-.76-.75-.21-2.35.42-4.58.92-6.83.18.02.36.03.54.05Z"/>
  <path class="cls-1" d="m45.36,141.03c-.49,2.25-1.12,4.48-.92,6.83-.25,0-.5,0-.76,0,0-1.5-.02-3.01-.03-4.51.26-2.09.52-4.17.78-6.26,1.33,1.08.78,2.59.92,3.95Z"/>
  <path class="cls-1" d="m181.19,56.67c-1.56-.35-3.37-.23-4.13-2.14,1.45-.37,2.85-.13,4.25.29.41.65.23,1.25-.12,1.85Z"/>
  <path class="cls-1" d="m49.1,132.09c.22-2.47.44-4.93.66-7.4.45,0,.91,0,1.36,0-.25,2.5-.49,4.99-.73,7.49,0,0,0-.01,0-.01l-1.29-.09Z"/>
  <path class="cls-1" d="m114.65,26.18c.32-.31.64-.62.96-.93.19.3.39.59.58.89-.51.01-1.03.03-1.54.04Z"/>
  <path class="cls-1" d="m116.92,26.13c-.02.26-.04.53-.06.79-.5-.04-.75-.3-.7-.81.26,0,.51.02.77.02Z"/>
  <path class="cls-1" d="m116.87,26.91c.25.25.51.51.76.76-.52,0-.77-.24-.76-.76Z"/>
  <path class="cls-1" d="m128.44,48.54c.39.38.78.76,1.17,1.15-.09,1.58.69,2.41,2.24,2.58,0,0,.02.01.02.01.53.71,1.06,1.42,1.59,2.13,0,0-.24.26-.24.26-2.06-.04-3.31-1.71-4.99-2.51-1.32-1.44-2.46-3.09-4.42-3.78-.25-.25-.49-.49-.74-.74-.27-.48-.53-.96-.8-1.44-.32-1.33-1.21-2.22-2.28-2.96-.24-.25-.49-.5-.73-.75,0-1.23-.41-2.26-1.45-2.99-2.6-3.68-6.45-4.86-10.66-5.19-9.53-.76-18.49,1.57-27.14,5.28-12.77,5.48-24.04,12.99-31.76,24.88-8.51,13.09-7.19,26.88,3.45,38.11,1.99,2.1,3.82,4.36,4.45,7.21.81,3.66.34,7.42.36,11.14-.19,1.03-.19,2.2-1.66,2.32-1.29-3.57.69-7.15-.27-10.92-.82-3.22-2.41-5.45-4.41-7.86-8.08-9.72-12.09-20.47-7.42-33.09,2.92-7.89,7.83-14.42,14.18-19.78,11.82-9.98,25.37-16.55,40.68-19.05,7.06-1.15,14.2-1.34,20.1,4.01.49.52.99,1.03,1.48,1.55,0,0-.03-.03-.03-.03.31.71.75,1.28,1.52,1.52,0,0-.02-.03-.02-.03-.03.65.11,1.21.76,1.52,0,0,0,0,0,0,.25.25.51.51.76.76,0,0-.01-.01-.01-.01-.09,1.83.54,3.02,2.59,3,.14.13.27.27.4.42-.1.75-.01,1.42.75,1.81,0,0,.01.02.01.02.24.24.49.49.73.73,0,0,.02.01.02.01.39.76,1.06.85,1.8.75Z"/>
  <path class="cls-1" d="m54.85,123.24c1.47-.12,1.47-1.29,1.66-2.32,1.17.13,2.04-.19,2.22-1.51.45,0,.9,0,1.35.01.23.48.46.97.7,1.45-.98,3.49-1.96,6.99-2.94,10.48-1.62-.6-1.41.57-1.45,1.5-.91-.05-1.39-.57-1.54-1.43-.7-2.17,1.7-4.64-.63-6.66-.04-.62.08-1.17.65-1.52Z"/>
  <path class="cls-1" d="m54.2,124.76c2.33,2.02-.07,4.48.63,6.66-.85,2.96-2.07,5.83-2.16,8.98-.54.36-.71.89-.71,1.5-.26,1.48-.51,2.97-.77,4.45-1.37,2.45.54,1.55,1.57,1.54-.01,1.21-.02,2.42-.04,3.63-.3.29-.59.59-.89.88-.26-.46-.52-.92-.78-1.38-.47-.54-.95-1.08-1.42-1.62,0-.52.01-1.04.02-1.56,0-.99.02-1.97.03-2.96,0,0,0,.01,0,.01,1.98-3.23,1.84-7.04,2.91-10.52.51-2.98,1.01-5.96,1.52-8.94.04-.22.07-.45.08-.67Z"/>
  <path class="cls-1" d="m54.12,125.43c-.51,2.98-1.01,5.96-1.52,8.94-.43-.02-.86-.04-1.29-.05-.07-.64-.25-1.21-.89-1.52,0-.21,0-.42-.03-.62,0,0,0,.01,0,.01,3.26-1.39,1.66-4.55,2.48-6.83.42.03.83.05,1.25.08Z"/>
  <path class="cls-1" d="m119.18,38.09c-.49-.52-.99-1.03-1.48-1.55.26-.25.53-.5.79-.76.73.62.76,1.45.68,2.3Z"/>
  <path class="cls-1" d="m152.05,165.04c2.56.08,5.13.17,7.69.25.17.66.35,1.31.52,1.97-.94,1.32-2.89.17-3.81,1.55-5.8-3.8-11.26-2.44-16.6,1.08-.81.53-1.8.81-2.7,1.2l-.17-.2c4.02-4.53,9.12-6.27,15.07-5.85Z"/>
  <path class="cls-1" d="m146.79,158.97c.72.45,1.44.91,2.17,1.36.4,1.59,2.11,1.47,3.07,2.32-.02.32-.03.64-.05.97-4.92-1.15-8.87,1.93-13.27,3.03l-.2-.22c2.53-2.63,6.15-3.29,9.71-5.03-2.18-1.02-3.53.04-4.94.54-2.07.74-3.74,2.54-6.17,2.35.61-1.39,2.06-1.63,3.16-2.36,1.48-.98,3.6-1.09,4.31-3.13,0-.41,0-.83,0-1.24.51,0,1.02.02,1.53.02.23.46.46.92.69,1.38Z"/>
  <path class="cls-1" d="m154.27,69.49c.08-.4.17-.8.25-1.2,8.09,2.02,13.86,8.44,14.47,16.46.29,3.71-1.54,7-2.93,10.29-1.69,4-3.67,7.88-5.5,11.82-2.03,4.37-2.32,8.67-.4,13.3,4.81,11.61-.07,28.19-9.63,33.97-2.23,1.35-5.11,1.25-6.93,3.37-1.53.22-3.13.35-3.53,2.31h.02c-.88-.13-1.7-.08-2.27.75l.02-.02c-1.05.06-1.83.53-2.26,1.51h.02c-1.05.04-1.82.52-2.26,1.49,0,0,.02-.01.02-.01-1.87.43-3.28,1.57-4.55,2.94-8.22,4.89-16.34,4.23-24.17-.79-2.91-1.86-5.41-4.36-8.19-6.45-5.31-3.99-10.71-7.81-17.93-6.87-2.09.27-4.19.64-6.28.58-8.49-.23-12.89-3.2-14.43-9.53.52-.02,1.03-.03,1.55-.05,1.53,5.44,5.68,7.18,10.75,7.48,2.35.14,4.77.34,7.08-.03,7.69-1.25,13.79,2,19.52,6.48,1.86,1.45,3.7,2.94,5.44,4.53,8.12,7.38,21.03,8.26,27.5,1.73,1.64-1.07,3.84-1.49,4.47-3.76l-.02.02c.66.05,1.21-.11,1.52-.76h-.02c1.13.07,2.14-.05,2.26-1.5l-.02.02c2.62-.15,4.69-1.53,6.74-2.98,12.81-4.53,19.38-20.04,14.02-33.66-2.06-5.24-1.78-10.1.6-15.05,1.89-3.91,3.48-7.96,5.49-11.8,6.19-11.84-1.07-21.09-10.41-24.6Z"/>
  <path class="cls-1" d="m140.08,159.82c.4-1.95,2-2.08,3.53-2.31.32.02.64.04.96.06,0,.41,0,.83,0,1.24-1.5.34-3,.67-4.5,1Z"/>
  <path class="cls-1" d="m146.78,68.68c1.04.01,2.08.03,3.13.04,1.13,2.21,3.74,2.24,5.4,3.7,8.45,7.39,9.09,12.88,3.57,23.36-1.79,3.4-3.48,6.85-5.06,10.35-1.72,3.82-1.73,7.66.28,11.46,4.01,7.57,3.42,24.61-5.34,31.82-.76.63-1.36,1.47-2.4,1.69-.16-.15-.32-.3-.48-.45.58-1.55,1.63-2.72,2.89-3.77,1.85-1.55,3.19-3.54,3.9-5.81,2.52-8.13,3.37-16.24-.73-24.21-1.56-3.02-1.69-6.15-.52-9.38,2.08-5.75,5.34-10.94,7.81-16.5,1.05-2.37,2.12-4.67,1.46-7.49-1.7-7.24-7.87-12.47-16.43-12.9,1.96,1.1,3.24,1.78,4.48,2.52,5.45,3.25,10.15,10.56,5.55,18.1-2.46,4.02-4.54,8.28-6.67,12.49-1.77,3.5-2.44,7.16.01,10.6,2.03,2.84,2.96,6.03,3.35,9.37.99,8.48.13,16.58-5.65,23.47.24-1.25.49-2.51.73-3.76,4.85-9.62,5.32-19.21-.19-28.75-1.6-2.77-1.71-5.66-.84-8.63.77-2.64,2.21-4.97,3.49-7.39,2.13-4.04,5.1-7.82,5.75-12.43,1.03-7.3-5.2-13.19-14.18-13.89-4.31-1.21-8.62-2.42-12.74-4.22l-1.46-.51c-.37-.12-.73-.25-1.1-.37-.59,0-1,.28-1.27.79-.21-.12-.41-.27-.58-.43-2.27-4.56-9.14-8.17-13.89-7.62-4.19.48-8.12,1.83-12.13,2.94-.29-.28-.58-.57-.87-.85,7.12-3.85,14.46-5.23,22.21-1.98,2.11,2.87,5.13,4.43,8.3,5.78,1.47.9,2.81,2.18,5.05,1.84-1.23-1.61-2.88-1.91-4.22-2.69-2.87-1.81-5.74-3.62-8.62-5.43-3.02-4.92-7.93-5.26-12.78-4.67-7.11.87-13.59,3.79-19.5,7.78-12.82,8.65-20.4,20.15-14.97,36.05,1.52,4.44,1.39,8.34.25,12.55-.44.07-.87.15-1.31.22,1.43-4.59.62-8.85-.96-13.37-2.7-7.7-1.89-15.27,2.1-22.62,4.84-8.91,12.53-14.48,21.34-18.4,7.84-3.49,16.14-6.35,24.73-1.72,1.22,1.52,2.39,3.11,4.34,3.8.95,1.2,2.01,2.21,3.67,2.28.35,1.12,1.28,1.37,2.29,1.5.5,1.53,1.9,1.69,3.16,2.06.77.9,1.87.69,2.86.86,1.17,1.61,2.92,1.34,4.57,1.39,2.5,1.86,5.42,1.33,8.23,1.43Zm-13.68-.35c.64,1.25,1.52,1.28,2.7.79-.79-.82-1.51-1.38-2.7-.79Zm4.54,1.54c.46.12.79.26,1.12.26.2,0,.4-.19.61-.3-.32-.12-.64-.29-.96-.32-.19-.02-.4.18-.76.36Z"/>
  <path class="cls-1" d="m144.65,152.42c-.07.2-.1.41-.11.62-2.23,1.52-4.91,2.37-6.7,4.54,0,0,.02-.02.02-.02-1.05.06-1.85.5-2.26,1.51,0,0,.02-.01.02-.01-.64,0-1.18.17-1.52.76,0,0,.02-.02.02-.02-2.13.32-3.66,1.72-5.3,2.92-8.85,3.12-16.76,1.54-23.86-4.59-3.75-3.24-7.57-6.4-11.49-9.43-3.49-2.69-7.33-3.77-11.87-2.59-3.94,1.02-8.06,1.38-12.18,1.06-5.09-.38-8.16-3.45-8.57-8.55-.11-1.34.2-2.76-.74-3.94.01-1.1.02-2.2.03-3.3,0-.74,0-1.47,0-2.21,0,0,0,.01,0,.01.79-.57.76-1.41.75-2.25h0c.81-.56.76-1.4.74-2.23,0,0,.01-.02.01-.02.79-.52.76-1.33.76-2.13,1.41-2.37,2.37-4.9,2.95-7.59,2.12-5.22,2.28-10.12-1.06-15.15-2.48-3.75-3.45-8.4-3.15-12.83.84-12.38,7.18-21.58,17.6-28.09.29.29.58.57.87.86-1.73,1.4-3.57,2.69-5.18,4.23-10.17,9.75-14.84,20.99-8.59,35.22,1.52,3.46,3.09,6.7,2.58,10.57-.2,1.54.31,2.45,2.09,1.84-.25.43-.5.85-.75,1.27-.21.21-.41.42-.62.64-1.1-.14-1.49.56-1.7,1.46-.11.32-.22.63-.33.95.94.3.92-.5,1.15-1.01.28-.48.56-.96.84-1.44.25-.03.5-.06.76-.09-.24,1.31-.49,2.63-.73,3.94-.13,1.93-3.29,3.85-.04,5.81-.22.56-.45,1.12-.67,1.68-1.17,2.1-.69,4.37-.68,6.59-.25,0-.49,0-.74,0-.04-.96-.09-1.93-.13-2.89-.17-.41-.4-.5-.71-.13-.25,1.31-.63,2.62-.72,3.95-.41,6.22,3.01,9.32,9.14,8.21,2.55-.46,5.26-.81,7.54-1.94,7.05-3.5,12.41-.7,17.39,4.06,3.86,3.68,7.66,7.43,11.49,11.14-.3.29-.61.59-.91.88-1.18-.24-1.89-1.15-2.68-1.93-3.18-3.15-6.3-6.36-9.54-9.44-4.18-3.99-8.83-5.81-14.57-3.14-1.99.93-4.25,1.34-6.44,1.77-8.93,1.73-11.86-.26-13.34-8.93-2.98,6.94.25,12.37,7.59,12.64,2.35.09,4.72.12,7.03-.57,7.42-2.21,13.95-.73,19.57,4.67,1.88,1.8,3.97,3.38,5.84,5.2,8.79,8.52,20.29,9.89,27.64,4.16,1.95-.96,4.3-1.37,5.2-3.77h0c3.23.35,4.96-3.31,8.15-3.06l.14.14Zm-78.09-34.27c.03-.1.07-.19.1-.29-.08-.03-.22-.1-.24-.08-.06.07-.08.18-.11.28.08.03.17.06.25.09Z"/>
  <path class="cls-1" d="m137.83,157.58c1.79-2.17,4.47-3.02,6.7-4.54.01.52.02,1.03.03,1.55-2.04,1.45-4.12,2.83-6.74,2.98Z"/>
  <path class="cls-1" d="m146.35,151.11c-.3.78-.88,1.21-1.7,1.32,0,0-.14-.14-.14-.14.03-.44.05-.89.08-1.34.43-.1.86-.19,1.28-.29.16.15.32.3.48.45Z"/>
  <path class="cls-1" d="m133.46,54.4c-.53-.71-1.06-1.42-1.59-2.13,2.59.23,4.58,1.5,6.11,3.55l-.21.28c-1.44-.57-2.87-1.14-4.31-1.71Z"/>
  <path class="cls-1" d="m132.48,47.18c.39.7.78,1.4,1.18,2.11-1.68.12-3.1-.16-3.27-2.25.7.05,1.4.09,2.1.14Z"/>
  <path class="cls-1" d="m122.89,38.81c1.18.68,2.12,1.54,2.26,3-1.71-.28-2.05-1.6-2.26-3Z"/>
  <path class="cls-1" d="m131.85,52.26c-1.54-.17-2.33-.99-2.24-2.58,1.04.6,2.31,1.01,2.24,2.58Z"/>
  <path class="cls-1" d="m124.73,44.8c-2.05.02-2.68-1.17-2.59-3,1.36.57,1.62,2.09,2.59,3Z"/>
  <path class="cls-1" d="m137.98,55.83c.78.12,1.61.13,2.17.83,0,0-.16.22-.15.22-.81-.05-1.63-.09-2.23-.76l.21-.28Z"/>
  <path class="cls-1" d="m120.67,39.58c-.77-.24-1.22-.81-1.52-1.52.5.25,1,.51,1.5.76,0,.25.02.51.02.76Z"/>
  <path class="cls-1" d="m128.58,46.28c.74-.08,1.4,0,1.78.75-.75.11-1.28-.28-1.78-.75Z"/>
  <path class="cls-1" d="m125.88,47.03c-.76-.39-.85-1.06-.75-1.81.46.51.86,1.05.75,1.81Z"/>
  <path class="cls-1" d="m128.44,48.54c-.74.1-1.41,0-1.8-.75.75-.11,1.29.29,1.8.75Z"/>
  <path class="cls-1" d="m125.88,42.55c.71.4.83,1.04.76,1.78-.25-.59-.51-1.18-.76-1.78Z"/>
  <path class="cls-1" d="m121.4,41.07c-.65-.31-.78-.87-.76-1.52.57.35.77.88.76,1.52Z"/>
  <path class="cls-1" d="m121.52,38.78c.49-.8.95-.59,1.39.05-.46-.02-.93-.03-1.39-.05Z"/>
  <path class="cls-1" d="m125.14,41.8c.25.25.51.51.76.76-.25-.25-.51-.51-.76-.76Z"/>
  <path class="cls-1" d="m122.16,41.82c-.25-.25-.51-.51-.76-.76.25.25.51.51.76.76Z"/>
  <path class="cls-1" d="m126.62,47.78c-.24-.24-.49-.49-.73-.73.24.24.49.49.73.73Z"/>
  <path class="cls-1" d="m139.33,48.55c-1.16.12-2.15-.03-2.25-1.5,1.06.03,1.84.49,2.25,1.5Z"/>
  <path class="cls-1" d="m146.05,65.72c.03.24.03.49,0,.73,0,0,0-.02,0-.02-.49,0-.98.02-1.47.02-1.49-.05-2.97-.1-4.46-.15-1.43-1.25-3.37-1.34-4.98-2.17-1.96-1.01-4.56-1.12-5.5-3.68,1.23.31,2.47.63,3.7.94l2.1.77c1.67,1.81,3.92,2.24,6.19,2.64.72.08,1.44.16,2.16.24.6.72,1.44.66,2.25.66Z"/>
  <path class="cls-1" d="m143.79,65.06c-.72-.08-1.44-.16-2.16-.24,0-.4,0-.81,0-1.22.38-.22,1.4.05.72-.96.5-.23.99-.45,1.49-.68.84.02,1.69,0,2.29.74-1.68-.12-2.43.7-2.33,2.35Z"/>
  <path class="cls-1" d="m137.77,56.11c.6.67,1.42.71,2.23.76.82.67,1.63,1.34,2.45,2.01-.29.27-.57.54-.85.81-.5.01-1.01.03-1.51.04h.01c-1.23-1.28-2.74-1.98-4.48-2.23h-.01c-.38-1.3-2.14-1.43-2.38-2.84,0,0,.24-.26.24-.26,1.44.57,2.87,1.14,4.31,1.71Z"/>
  <path class="cls-1" d="m141.59,59.69c.28-.27.57-.54.85-.81,1.22.28,2.43.56,3.65.84-.56.87-1.46.73-2.29.79-.49-.01-.99-.03-1.48-.04,0,0,.03.02.03.02-.25-.26-.5-.53-.76-.79Z"/>
  <path class="cls-1" d="m143.83,61.96c-.5.23-.99.45-1.49.68-3.76-1.49-8.12-1.92-10.49-5.9,1.28.05,2.37,1.1,3.73.75,0,0,.01.01.01.01.71,2.32,2.6,2.27,4.48,2.24,0,0-.01,0-.01,0,.54.89,1.41.8,2.27.75,0,0-.03-.02-.03-.02.5.28,1,.56,1.5.85,0,.22,0,.44.02.66Z"/>
  <path class="cls-1" d="m143.82,61.31c-.5-.28-1-.56-1.5-.85.49.01.99.03,1.48.04,0,.27.01.53.02.8Z"/>
  <path class="cls-1" d="m146.78,68.68c-2.81-.11-5.73.43-8.23-1.43,0,0,.05-.06.05-.06.5-.01,1-.02,1.5-.04l5.96.77c.24.26.48.51.72.77Z"/>
  <path class="cls-1" d="m146.05,67.92c-1.99-.26-3.97-.51-5.96-.77,0-.28,0-.56.01-.84,1.49.05,2.97.1,4.46.15.5.25.99.5,1.49.75,0,0,0,0,0,0,0,.24,0,.47,0,.71Z"/>
  <path class="cls-1" d="m146.05,67.2c-.5-.25-.99-.5-1.49-.75.49,0,.98-.02,1.47-.02,0,.26,0,.52.02.77Z"/>
  <path class="cls-1" d="m98.54,196.94c-.36.34-.71.67-1.07,1.01-6.76-1.74-12.79-5.23-19.09-8.05-7.66-3.44-15.88-5.62-23.06-10.13-4.29-2.7-8.55-5.46-10.92-10.21.31-.35.62-.69.93-1.04,5.68,6.88,12.92,11.47,21.29,14.38,11.02,3.84,21.24,9.47,31.94,14.05Z"/>
  <path class="cls-1" d="m42.18,162.86c.03-1.11.1-2.19,1.58-2.3-.04,2.45.18,4.86,1.09,7.16-.26.2-.52.4-.78.6-1.91-1.38-1.85-3.44-1.89-5.46Z"/>
  <path class="cls-1" d="m45.32,168.51c-.31.35-.62.69-.93,1.04-.11-.41-.21-.82-.32-1.23.26-.2.52-.4.77-.6.16.26.31.52.47.79Z"/>
  <path class="cls-1" d="m122.88,195.68c.33-.75.64-.3.95.02-.32,0-.63-.01-.95-.02Z"/>
  <path class="cls-1" d="m45.14,157.63c-.23-.01-.46-.03-.68-.05,0-.99.02-1.99.03-2.98.23-.5.47-1.01.7-1.51.34-.54.85-.72,1.46-.71-.5,1.75-1.01,3.5-1.51,5.25Z"/>
  <path class="cls-1" d="m45.2,148.61c.11-.66-.24-1.74.74-1.74,1,0,.62,1.08.72,1.73-.49,0-.98,0-1.46,0Z"/>
  <path class="cls-1" d="m42.2,151.59c.25-.25.49-.5.74-.75-.1,1.28.42,2.69-.73,3.77,0-1.01,0-2.01,0-3.02Z"/>
  <path class="cls-1" d="m42.94,150.84c.06-1.05-.26-2.18.75-2.99-.06,1.05.28,2.19-.75,2.99Z"/>
  <path class="cls-1" d="m42.21,157.58c-.92-.76-.89-1.51,0-2.27,0,.76,0,1.51,0,2.27Z"/>
  <path class="cls-1" d="m45.18,153.09c-.23.5-.47,1.01-.7,1.51-.86-1.01.21-1.13.7-1.51Z"/>
  <path class="cls-1" d="m173.7,58.99c-1.27.67-2.32.07-3.63-.45,2.03-1.84,3.68-2.14,5.13.27-.5.06-1,.12-1.5.18Z"/>
  <path class="cls-1" d="m180.42,64.21c-1.26.3-2.28.22-2.21-1.47,1.16-.15,1.93.3,2.21,1.47Z"/>
  <path class="cls-1" d="m176.71,58.98c.23.2.47.41.7.61-.23-.2-.47-.41-.7-.61Z"/>
  <path class="cls-1" d="m180.27,65.03c.06-.27.12-.53.17-.8.26-.03.51-.06.77-.09-.31.3-.63.6-.94.89Z"/>
  <path class="cls-1" d="m50.84,159.02c5.26,6.62,12.95,8.81,20.51,11.23,0,.5,0,1.01,0,1.51-5.77-.96-11.11-3.03-16.11-6.05-2.62-1.58-4.53-3.73-5.67-6.57.43-.04.85-.08,1.27-.12Z"/>
  <path class="cls-1" d="m125.11,178.45c-6.48,3.57-13.19,4.17-20.13,1.51.03-.39.06-.78.1-1.17,8.24,1.73,16.12,2.02,22.06-5.49,0,0,0,0,0,0,.37-.1.75-.21,1.12-.31.09,1.4-1.02,2.21-1.61,3.27-.25.25-.5.49-.75.74-.26.49-.52.97-.78,1.46Z"/>
  <path class="cls-1" d="m142.32,172.49c-1.49.26-2.99.52-4.48.77,3.24-2.99,6.93-5.06,11.42-5.27,1.33-.06,2.95-.36,3.52,1.53-1.49,0-2.99,0-4.48.01-2.11.77-4.79.37-5.99,2.97,0,0,0-.01,0-.01Z"/>
  <path class="cls-1" d="m126.64,176.24c.59-1.06,1.7-1.87,1.61-3.27.86-.86,1.73-1.72,2.59-2.59,1.54-.59,3.07-1.18,4.61-1.76l.25.25c-3.21,2.21-5.14,6.01-9.05,7.37Z"/>
  <path class="cls-1" d="m137.16,171.09c-.65.55-1.25,1.17-1.95,1.64-.57.39-.99,1.12-2.11.89.84-1.71,2.06-2.62,3.89-2.73,0,0,.17.2.17.2Z"/>
  <path class="cls-1" d="m135.61,175.51c-.61,1.27-1.93,1.63-2.98,2.33.05-1.55,1-2.42,2.29-3.05.23.24.46.48.7.72Z"/>
  <path class="cls-1" d="m148.3,169.53c1.49,0,2.99,0,4.48-.01-.01.26-.02.52-.04.79-1.48.02-2.96.04-4.43.06,0-.28,0-.56-.01-.83Z"/>
  <path class="cls-1" d="m127.36,180.71c.13-.69.08-1.49,1.1-1.62.29.99-.5,1.25-1.06,1.65,0,0-.04-.04-.04-.04Z"/>
  <path class="cls-1" d="m137.12,168.05c-.48.27-.95.55-1.43.82,0,0-.24-.25-.24-.24.31-.43.61-.86.92-1.29.25.24.5.48.76.72Z"/>
  <path class="cls-1" d="m154.26,171.04c-.64.03-1.17-.15-1.49-.75.62,0,1.16.17,1.49.75Z"/>
  <path class="cls-1" d="m137.85,173.26c-.31.66-.88.79-1.52.76.51-.25,1.02-.51,1.52-.76Z"/>
  <path class="cls-1" d="m130.08,177.18c-.08-.03-.16-.06-.24-.08.04-.09.05-.2.11-.27.03-.03.15.05.23.08l-.11.28Z"/>
  <path class="cls-1" d="m125.11,178.45c.26-.49.52-.97.78-1.46-.03.53-.06,1.06-.09,1.58-.23-.04-.46-.08-.69-.12Z"/>
  <path class="cls-1" d="m137.12,168.05c-.25-.24-.5-.48-.76-.72.46-.06.92-.12,1.38-.18l.17.2c-.26.23-.53.47-.79.7Z"/>
  <path class="cls-1" d="m127.43,181.48c-.26.25-.53.5-.79.75.02-.62.11-1.19.73-1.52,0,0,.04.03.04.04,0,.25.02.49.02.74Z"/>
  <path class="cls-1" d="m129.63,180.72c-.15.35.27,1.28-.76.75.25-.25.5-.5.76-.75Z"/>
  <path class="cls-1" d="m126.62,185.2c-.49.7-.99.69-1.48,0,.49,0,.99,0,1.48,0Z"/>
  <path class="cls-1" d="m135.61,175.51c-.23-.24-.47-.48-.7-.72.23-.03.47-.05.71-.05,0,.25,0,.51,0,.76Z"/>
  <path class="cls-1" d="m131.21,179.24c-.28.25-.56.5-.84.75.28-.25.56-.5.84-.75Z"/>
  <path class="cls-1" d="m130.38,179.98c-.25.25-.51.5-.76.76.25-.25.51-.5.76-.76Z"/>
  <path class="cls-1" d="m138.7,166.65c-.26.23-.52.46-.79.69,0,0-.17-.2-.17-.2.25-.24.5-.48.75-.71,0,0,.2.22.2.22Z"/>
  <path class="cls-1" d="m136.37,173.99c-.26.26-.52.52-.78.78.26-.26.52-.52.78-.78Z"/>
  <path class="cls-1" d="m167.73,57.49l.7.14c-.07.12-.13.23-.2.35-.17-.16-.34-.32-.51-.48,0,0,0,0,0,0Z"/>
  <path class="cls-1" d="m99.19,190.29c2.69.44,5.38.87,8.07,1.32,4.67.78,9.13.26,13.32-2.05.35.34.69.68,1.04,1.02-7.67,4.81-15.49,3.83-23.37.58.31-.29.63-.59.94-.88Z"/>
  <path class="cls-1" d="m134.85,179.98c.63-1.25,1.53-2.12,3-2.25-.27,1.72-1.55,2.1-3,2.25Z"/>
  <path class="cls-1" d="m138.61,181.51c-.26-.02-.52-.04-.78-.06.16-1.41,1.14-1.55,2.26-1.49-.49.51-.99,1.03-1.48,1.54Z"/>
  <path class="cls-1" d="m137.83,177.74c.34-.59.88-.77,1.51-.76-.31.64-.86.79-1.51.76Z"/>
  <path class="cls-1" d="m140.83,179.23c-.25.25-.5.5-.75.75.25-.25.5-.5.75-.75Z"/>
  <path class="cls-1" d="m148.3,169.53c0,.28,0,.55.01.83-1.94.87-3.76,2.11-6,2.14,1.2-2.6,3.89-2.2,5.99-2.97Z"/>
  <path class="cls-1" d="m99.19,190.29c-.31.29-.63.59-.94.88-3.28-1.44-6.69-2.65-9.8-4.39-5.97-3.32-12.13-6.11-18.6-8.28,0-.52.02-1.05.03-1.57,5.06.58,9.4,3.14,13.85,5.26,5.25,2.5,10.32,5.38,15.46,8.1Z"/>
  <path class="cls-1" d="m51.31,134.31c.43.02.86.04,1.29.05-1.07,3.48-.94,7.29-2.92,10.52-.15-3.63,1.36-7,1.62-10.57Z"/>
  <path class="cls-1" d="m51.06,151.02c-.45.08-.9.16-1.34.24-.49.86-.98,1.71-1.47,2.56-.24.04-.49.09-.73.15.5-1.62-.67-4.01,2.12-4.57.47.54.95,1.08,1.42,1.62Z"/>
  <path class="cls-1" d="m50.39,132.17c.03.21.03.42.03.62-.29,1.02-.58,2.05-.87,3.07-.21-.02-.43-.04-.64-.06.06-1.24.13-2.48.19-3.72.43.03.86.06,1.29.09Z"/>
  <path class="cls-1" d="m48.85,141.1c-.02.84-.19,1.63-.87,2.25-.97-.83-.44-1.53.18-2.22.23,0,.46-.02.69-.04Z"/>
  <path class="cls-1" d="m48.85,141.1c-.23.02-.46.03-.69.04.03-.7.07-1.39.12-2.44.89.92.54,1.7.57,2.41Z"/>
  <path class="cls-1" d="m49.69,144.88c0,.99-.02,1.97-.03,2.96-1-1-.95-1.98.03-2.96Z"/>
  <path class="cls-1" d="m135.59,57.49c-1.37.36-2.45-.7-3.73-.75,0,0,.01.01.01.01-.44-.97-1.2-1.46-2.26-1.5h.01c-.57-.91-1.14-1.83-1.72-2.75.11-.11.21-.23.31-.34,1.68.8,2.93,2.46,4.99,2.51.24,1.41,1.99,1.54,2.37,2.83Z"/>
  <path class="cls-1" d="m123.81,48.37c1.96.69,3.1,2.34,4.42,3.78-.1.11-.21.23-.31.34-.65-.1-1.3-.21-1.95-.31-.25-.25-.5-.5-.75-.76-.25-.25-.49-.49-.73-.74-.25-.25-.49-.51-.74-.76-.08-.43-.17-.85-.25-1.28.1-.09.21-.18.31-.28Z"/>
  <path class="cls-1" d="m116.82,40.46c.33-.32.66-.64.98-.96,1.04.72,1.46,1.75,1.45,2.99,0,0-.14.12-.14.12-.77-.72-1.53-1.43-2.3-2.15Z"/>
  <path class="cls-1" d="m119.99,43.22c1.08.74,1.97,1.64,2.28,2.96-.11.09-.21.19-.31.29-1.4-.56-1.87-1.76-2.13-3.1l.16-.15Z"/>
  <path class="cls-1" d="m122.27,46.19c.27.48.53.96.8,1.44,0,0-.27.24-.27.24-.28-.47-.56-.93-.85-1.4.1-.1.21-.19.32-.29Z"/>
  <path class="cls-1" d="m119.25,42.48c.24.25.49.5.73.75,0,0-.16.15-.16.15-.24-.26-.47-.51-.71-.77l.14-.12Z"/>
  <path class="cls-1" d="m123.07,47.63c.24.25.49.49.74.74-.1.09-.2.19-.3.27-.23-.26-.47-.52-.7-.77,0,0,.27-.24.27-.24Z"/>
  <path class="cls-1" d="m58.72,119.41c.79-7.41-.37-14.16-6.08-19.62-1.06-1.01-1.97-2.54-2.17-4.22.3-.32.61-.64.91-.97,2.27,3.37,4.36,6.84,7.14,9.88,3.48,3.8,1.92,8.71,2.37,13.16v-.03c-.26.61-.54,1.21-.82,1.82-.45,0-.9,0-1.34-.01Z"/>
  <path class="cls-1" d="m60.9,117.6s-.01.03-.01.03c.5-.88,1.01-1.75,1.51-2.63.3.02.6.03.9.05-.34,2.21-.67,4.43-1.01,6.64-.87.86-.65,1.95-.66,3,0,0-.01.02,0,.02-.81.56-.74,1.41-.74,2.23,0,0,0,0,0,0-.8.57-.73,1.42-.75,2.25,0,0,0-.01,0-.01-.84.74-.96,1.47,0,2.21-.01,1.1-.02,2.2-.03,3.3-.25-.02-.51-.04-.76-.06-.09-.16-.18-.31-.27-.47-.1.14-.21.27-.31.41,0,0,.03-.04.03-.04-.71.27-.4.44.06.58.12.24.09.46-.08.67-.54.04-1.08.09-1.62.14h-.01c0-.51-.02-1.02-.02-1.52.24-1.01.47-2.03.71-3.04.98-3.49,1.96-6.99,2.94-10.48.05-1.09.09-2.18.14-3.26Z"/>
  <path class="cls-1" d="m57.12,134.39c0,.51.02,1.01.02,1.52-.25,0-.5,0-.74,0-.08.07-.25.16-.24.21.04.18.14.35.21.52-.23.51-.46,1.01-.69,1.52-.26.25-.52.5-.77.75-1.11-.04-1.5.99-2.24,1.49.1-3.14,1.32-6.02,2.16-8.98.16.86.63,1.38,1.54,1.43.25.52.5,1.03.74,1.55Z"/>
  <path class="cls-1" d="m57.12,134.39c-.25-.51-.5-1.03-.74-1.55.04-.93-.17-2.1,1.45-1.5-.24,1.01-.47,2.03-.71,3.04Z"/>
  <path class="cls-1" d="m60.9,117.6c-.04,1.09-.09,2.18-.14,3.26-.23-.48-.46-.97-.7-1.45.28-.61.55-1.21.83-1.82Z"/>
  <path class="cls-1" d="m54.79,147.92c-.68-.01-1.35-.02-2.03-.03-1.03,0-2.95.91-1.57-1.54,3.01-.64,2.35-2.52,1.49-4.46.49,0,.97,0,1.46.01,2.69-.35,1.01-2.5,1.54-3.75.23-.51.46-1.01.69-1.52.01-.24.02-.48.03-.72.25,0,.5,0,.74,0,0,0,.01,0,.01,0,.25.5.49.99.74,1.49.32.29.64.57.96.86.17,1.71.34,3.41.52,5.12-.52.02-1.03.03-1.55.05-2.55.81-1,2.94-1.43,4.44-.53.02-1.06.04-1.6.06Zm2.65-7.72c-.21-.11-.37-.21-.53-.26-.04-.01-.21.17-.19.22.06.16.17.29.26.44.15-.13.3-.26.46-.4Z"/>
  <path class="cls-1" d="m52.72,151.52c2.72,7.19,9.08,9.38,15.61,11.34-.23.42-.46.85-.69,1.28-5.56-.76-10.37-2.95-13.98-7.37-1.03-1.26-1.69-2.71-1.82-4.36.29-.29.59-.59.89-.88Z"/>
  <path class="cls-1" d="m52.68,141.89c.86,1.94,1.52,3.81-1.49,4.46.26-1.48.51-2.97.77-4.45.24,0,.48-.01.72-.01Z"/>
  <path class="cls-1" d="m52.68,141.89c-.24,0-.48,0-.72.01,0-.61.17-1.15.71-1.5.74-.5,1.14-1.53,2.24-1.49-.26,1-.51,2-.77,3-.49,0-.97,0-1.46-.01Z"/>
  <path class="cls-1" d="m138.5,166.44c-.25.24-.5.48-.75.71-.46.06-.92.12-1.38.18-.3.43-.61.86-.92,1.29-1.54.59-3.07,1.17-4.61,1.76.54-.81,1.22-1.56,1.05-2.65.15-.15.3-.29.46-.43,2.28.09,3.91-.84,4.76-3.01h0c2.43.18,4.09-1.62,6.17-2.35,1.41-.5,2.76-1.56,4.94-.54-3.57,1.74-7.19,2.4-9.71,5.03Z"/>
  <path class="cls-1" d="m140.08,159.82c1.5-.33,3-.67,4.5-1-.71,2.03-2.83,2.15-4.31,3.13-1.1.73-2.55.98-3.16,2.36,0,0,0,0,0,0-1.24.51-2.47,1.02-3.71,1.53l-.2-.25c.06-.68.11-1.37.17-2.05,0,0-.02.01-.02.01,1.15.1,2.14-.05,2.26-1.51,0,0-.02.01-.02.01,1.16.1,2.15-.04,2.26-1.51,0,0-.02.02-.02.02.87.1,1.71.1,2.27-.76,0,0-.02.01-.02.01Z"/>
  <path class="cls-1" d="m129.64,163.57c-.28-.28-.55-.56-.83-.84,1.64-1.2,3.17-2.61,5.3-2.92-.63,2.27-2.83,2.69-4.47,3.76Z"/>
  <path class="cls-1" d="m129.59,167.18c-.26-.23-.51-.47-.77-.7,1.27-1.37,2.67-2.51,4.55-2.94-.06.68-.11,1.37-.17,2.06-1.45-.04-2.38,1.13-3.61,1.58Z"/>
  <path class="cls-1" d="m135.61,162.04c-.12,1.46-1.11,1.6-2.26,1.51.44-.98,1.21-1.46,2.26-1.51Z"/>
  <path class="cls-1" d="m135.59,159.07c.42-1.01,1.21-1.45,2.26-1.51-.13,1.44-1.13,1.57-2.26,1.51Z"/>
  <path class="cls-1" d="m137.85,160.55c-.11,1.47-1.11,1.61-2.26,1.51.44-.98,1.21-1.45,2.26-1.51Z"/>
  <path class="cls-1" d="m140.09,159.81c-.55.85-1.39.86-2.27.76.56-.83,1.39-.88,2.27-.76Z"/>
  <path class="cls-1" d="m134.09,159.82c.33-.59.88-.77,1.52-.76-.31.65-.86.81-1.52.76Z"/>
  <path class="cls-1" d="m124.78,67.19c.37.12.73.25,1.1.37-.12,1.11.43,1.68,1.48,1.84,3.97,2.17,8.36,2.93,12.72,3.77.57.24,1.15.48,1.71.73,7.72,3.47,9.84,9.47,5.88,16.88-2.16,4.05-4.61,7.95-6.68,12.04-1.54,3.03-1.77,6.25.53,9.11,3.93,4.89,5.08,10.6,5.33,16.68.21,5.03-1.23,9.83-1.79,14.74-1.35.79-1.39,3.01-3.38,3.11l-.19-.16c1.88-2.69,2.47-5.8,2.96-8.94.05-.49.08-.99.16-1.48,1.48-8.51.65-16.54-4.87-23.62-2.32-2.98-2.34-6.22-.62-9.44,2.41-4.48,4.97-8.88,7.47-13.31,2.74-4.86,1.93-8.91-2.39-12.53-2.74-2.29-6.13-2.42-9.38-3.08-.79-.93-1.9-.68-2.91-.82-2.81-1.28-5.52-2.86-8.72-3.02-2.99-3-6.66-4.75-10.8-5.02-12.03-.79-25.73,9.6-28.54,21.28-1.09,4.56-.41,9.13-.48,13.69-.03,1.91-.1,3.71-1.55,5.15-.07,2.45-2.37,2.72-3.78,3.86h0c-2.51,1.45-3.18,4.79-6.04,5.89-.09-1.3.21-2.52.79-3.69,3.16-4.31,3.96-8.65,2.69-14.2-1.7-7.44-.87-15.08,4.09-21.59.27.29.55.58.82.87-2.72,5.8-4.77,11.74-3.7,18.29.64,3.94,2.12,7.77.7,12.57,3.11-1.69,4.49-3.45,4.44-6.24-.06-2.98-.12-5.96-.1-8.94.07-14.5,13.81-28.07,28.38-28.73,5.09-.23,8.65,2.51,12.79,4.28.18.17.37.31.59.43.42-.26.84-.53,1.27-.79Z"/>
  <path class="cls-1" d="m145.07,143.37c.33,0,.65,0,.98,0-.24,1.25-.49,2.51-.73,3.76,0,0,.02-.01.02-.01-.26-.01-.52-.02-.79-.04-1.99,1.25-3.25,3.66-5.96,3.76.32-.94,1.27-2.09-.75-2.23,2.1-3.66,5.45-6.67,5.89-11.2.25,0,.49-.02.74-.04-.49,3.15-1.08,6.26-2.96,8.94-.3.32-.6.65-.9.97.14.1.29.21.43.31.22-.37.44-.75.65-1.12,1.99-.1,2.02-2.32,3.38-3.11Z"/>
  <path class="cls-1" d="m96.91,62.87c-6.33,3.45-11.64,8.16-16.49,13.43-.27-.29-.55-.58-.82-.87,4.52-5.65,9.64-10.56,16.44-13.42.29.28.58.57.87.85Z"/>
  <path class="cls-1" d="m140.08,72.29c0,.29,0,.59,0,.88-4.36-.85-8.75-1.6-12.72-3.77,0-.44-.01-.89-.02-1.33,4.11,1.81,8.43,3.01,12.74,4.22Z"/>
  <path class="cls-1" d="m126.54,65.83c-3.17-1.35-6.19-2.91-8.3-5.78.13-.2.3-.37.51-.5,2.88,1.81,5.75,3.62,8.62,5.43-.28.29-.55.57-.83.86Z"/>
  <path class="cls-1" d="m71.75,111.25c.36,0,.71-.01,1.07-.02-.57,1.16-.87,2.38-.79,3.69-1.6.05-1.98,1.59-2.93,2.42.24-1.31.49-2.63.73-3.94-.01-.17-.05-.34-.1-.51.25-.42.5-.85.75-1.27,0,0-.03-.15-.04-.15.43-.07.87-.15,1.3-.22Z"/>
  <path class="cls-1" d="m117.66,55.36c.03-.57.07-1.13.1-1.7,1.71,1.54,3.62,2.9,4.62,5.08-.13.14-.25.28-.38.41-1.95-.69-3.12-2.28-4.34-3.8Z"/>
  <path class="cls-1" d="m126.54,65.83c.28-.29.55-.57.83-.86,1.34.79,2.99,1.08,4.22,2.69-2.24.34-3.58-.94-5.05-1.84Z"/>
  <path class="cls-1" d="m125.67,61.43c-1.65-.06-2.72-1.08-3.67-2.28.12-.14.25-.27.38-.41.64.12,1.28.23,1.92.34.56.67,1.12,1.35,1.68,2.02-.1.11-.2.22-.31.32Z"/>
  <path class="cls-1" d="m131.12,65c-1.26-.37-2.66-.53-3.16-2.06.08-.11.17-.21.25-.32,1.12.25,2.13.7,2.95,1.54l-.04.84Z"/>
  <path class="cls-1" d="m138.55,67.25c-1.65-.05-3.39.22-4.57-1.39,0,0,.18-.23.18-.23,1.6.19,3.15.5,4.44,1.55l-.05.06Z"/>
  <path class="cls-1" d="m133.1,68.33c1.19-.6,1.92-.04,2.7.79-1.18.49-2.06.46-2.7-.79Z"/>
  <path class="cls-1" d="m131.12,65c.01-.28.03-.56.04-.84,1.15.19,2.18.61,3,1.47,0,0-.18.23-.18.23-.99-.17-2.09.04-2.86-.86Z"/>
  <path class="cls-1" d="m127.96,62.94c-1.01-.13-1.93-.38-2.29-1.5.11-.1.21-.21.31-.32.95.19,1.72.67,2.23,1.51-.09.1-.17.21-.25.32Z"/>
  <path class="cls-1" d="m127.34,68.07c0,.44.01.89.02,1.33-1.06-.16-1.61-.73-1.48-1.84.49.17.98.34,1.46.51Z"/>
  <path class="cls-1" d="m137.64,69.87c.35-.18.57-.38.76-.36.33.04.64.21.96.32-.2.11-.41.31-.61.3-.33,0-.66-.15-1.12-.26Z"/>
  <path class="cls-1" d="m124.78,67.19c-.42.26-.84.53-1.27.79.26-.51.68-.79,1.27-.79Z"/>
  <path class="cls-1" d="m113.87,143.46c-3.82-2.59-5.56-6.94-8.62-10.17-1.11-1.17-2.05-2.49-3.17-3.65-5.59-5.79-7.18-5.91-13.97-1.41-2.79,1.84-5.46,3.88-8.74,4.88-4.91,1.5-7.86-.12-9.34-5.06-.34-1.12.51-2.99-1.64-3.23.22-.56.45-1.12.67-1.68.21-1.35,1.2-1.44,2.27-1.43,0,1.48-.07,2.97,0,4.44.13,2.66,1.17,5.05,3.81,5.78,2.54.7,4.84-.33,6.26-2.76l.02.02c.78.12,1.49.05,1.89-.76,0,0-.02.02-.02.02.5-.01,1-.02,1.5-.03,1.93-.96,3.84-1.95,5.25-3.66,4.9-2.75,8.69-.69,12.18,2.77,4.66,4.62,8.03,10.29,12.45,15.11-.27.27-.53.54-.8.81Z"/>
  <path class="cls-1" d="m71.33,121.71c-1.06-.01-2.06.08-2.27,1.43-3.24-1.96-.09-3.87.04-5.81.95-.83,1.33-2.37,2.93-2.42,2.85-1.1,3.53-4.44,6.03-5.89.17.16.34.32.51.49.07-.12.13-.24.2-.36-.24-.04-.47-.09-.71-.13,1.41-1.14,3.71-1.41,3.78-3.86.71.01,1.41.03,2.12.04.91.32,1.82.63,2.74.95-.88.67-1.72,1.39-2.63,2.01-4.26,2.91-8.14,6.15-9.92,11.24-.76.07-1.58-.02-2.09.74-.25.52-.49,1.04-.74,1.56Z"/>
  <path class="cls-1" d="m130.27,158.18c-7.31,2.1-13.96.45-20.23-3.48.3-.29.61-.59.91-.88,2.52.96,5.01,2.05,7.58,2.85,5.24,1.65,10.19.75,14.82-2.09,1.34-.89,3.4-.86,3.75-2.99h-.01c.65.06,1.2-.09,1.5-.74h0c2.71-.11,3.97-2.51,5.96-3.77.23.25.46.5.69.75-.25.48-.5.96-.74,1.44-2.59,2.19-5.85,3.48-8.14,6.07h0c-2.26.45-4.19,1.61-6.09,2.84Z"/>
  <path class="cls-1" d="m78.71,58.9c3.34-2.63,12.83-8.15,17.29-8.72.4.06,1.16,1.01,1.56,1.08-7.38,2.51-14.18,6.29-17.98,8.5-.29-.29-.58-.57-.87-.86Z"/>
  <path class="cls-1" d="m67.71,131.41c2.17,3.21,4.35,6.4,9.23,5.2-4.47,3.17-8.26,1.03-9.97-5.19.25,0,.49,0,.74,0Z"/>
  <path class="cls-1" d="m136.35,155.34c2.3-2.58,5.55-3.88,8.14-6.07.03.56.06,1.11.09,1.67-.03.45-.05.89-.08,1.34-3.2-.26-4.92,3.4-8.15,3.06Z"/>
  <path class="cls-1" d="m64.25,114.93c.36.01.72.02,1.08.03-.58,2.69-1.54,5.23-2.95,7.59-.03-.29-.07-.58-.1-.87.34-2.21.67-4.43,1.01-6.64.32-.04.64-.08.96-.12Z"/>
  <path class="cls-1" d="m130.27,158.18c1.9-1.23,3.83-2.39,6.09-2.84-.9,2.4-3.26,2.81-5.2,3.77-.29-.31-.59-.62-.88-.92Z"/>
  <path class="cls-1" d="m62.28,121.69c.03.29.07.58.1.87,0,.8.04,1.61-.76,2.13,0-1.05-.21-2.14.66-3Z"/>
  <path class="cls-1" d="m60.13,131.39c-.95-.74-.84-1.47,0-2.21,0,.74,0,1.47,0,2.21Z"/>
  <path class="cls-1" d="m60.12,129.19c.02-.83-.05-1.68.75-2.25,0,.84.05,1.68-.75,2.25Z"/>
  <path class="cls-1" d="m68.24,114.93c-.23.51-.21,1.3-1.15,1.01.11-.32.22-.63.33-.95.27-.02.55-.04.82-.06Z"/>
  <path class="cls-1" d="m68.24,114.93c-.27.02-.54.04-.82.06.21-.9.6-1.59,1.7-1.46,0,0-.04-.04-.04-.04-.28.48-.56.96-.84,1.44Z"/>
  <path class="cls-1" d="m60.87,126.94c0-.82-.07-1.67.74-2.23.02.83.07,1.67-.74,2.23Z"/>
  <path class="cls-1" d="m66.55,118.16c-.08-.03-.17-.06-.25-.09.03-.1.05-.2.11-.28.02-.02.16.05.24.08-.03.1-.07.19-.1.29Z"/>
  <path class="cls-1" d="m66.84,128.53c-.23-.07-.47-.11-.71-.13.31-.37.54-.28.71.13Z"/>
  <path class="cls-1" d="m69.74,112.89c.05.17.08.34.1.51-.25.03-.5.06-.76.09,0,0,.04.04.04.04.21-.21.41-.42.62-.64Z"/>
  <path class="cls-1" d="m128.21,62.62c-.51-.84-1.27-1.32-2.23-1.51-.56-.68-1.12-1.35-1.68-2.03,0,0,.23-.24.23-.24,1.92-.13,3.09,2.08,5.11,1.63h0c.93,2.55,3.53,2.66,5.5,3.67,1.61.82,3.54.92,4.98,2.17,0,.28,0,.56-.01.84-.5.01-1,.02-1.49.04-1.29-1.05-2.85-1.37-4.44-1.55-.82-.86-1.85-1.29-3-1.47-.81-.84-1.83-1.28-2.95-1.54Z"/>
  <path class="cls-1" d="m133.34,61.4c-1.23-.31-2.47-.63-3.7-.94,0,0,0,0,0,0-1.51-2.21-3.92-3.32-5.98-4.85-.62-.62-1.25-1.25-1.87-1.87-.2-.88-.4-1.76-.6-2.63,1.99,1.15,2.88,3.73,5.44,4.12l.02.02c1.59,2.58,4.5,3.46,6.71,5.24,0,.3-.01.6-.02.9Z"/>
  <path class="cls-1" d="m141.63,63.6c0,.41,0,.81,0,1.22-2.27-.4-4.52-.83-6.19-2.64,0,0,.2-.26.2-.26,1.99.56,3.99,1.13,5.98,1.69Z"/>
  <path class="cls-1" d="m133.34,61.4c0-.3.01-.6.02-.9.76.47,1.53.94,2.29,1.41,0,0-.2.26-.2.26-.7-.26-1.4-.51-2.1-.77Z"/>
  <path class="cls-1" d="m135.64,61.91c-.76-.47-1.53-.94-2.29-1.41-2.21-1.79-5.12-2.67-6.71-5.24,1,0,1.99,0,2.99,0,0,0-.01-.01-.01-.01.11,1.46,1.11,1.59,2.26,1.5,0,0-.01-.01-.01-.01,2.36,3.98,6.72,4.41,10.49,5.9.69,1.01-.34.74-.72.96-1.99-.56-3.99-1.13-5.98-1.69Z"/>
  <path class="cls-1" d="m140.09,59.74c-1.88.04-3.77.08-4.48-2.24,1.74.25,3.26.95,4.48,2.24Z"/>
  <path class="cls-1" d="m142.35,60.48c-.85.05-1.73.14-2.27-.75.5-.01,1.01-.02,1.51-.04.25.26.5.53.76.79Z"/>
  <path class="cls-1" d="m48.25,153.81c.49-.85.98-1.7,1.47-2.56-.12,2.66-.04,5.29,1.12,7.77-.42.04-.85.08-1.27.12-.9-1.66-1.17-3.48-1.31-5.33Z"/>
  <path class="cls-1" d="m67.65,164.13c.23-.43.46-.85.69-1.28,9.63.77,18.73,2.97,26.19,9.63-.31.3-.61.6-.92.91-2.28-1.24-4.67-2.32-6.82-3.76-5.81-3.9-12.71-3.86-19.14-5.5Z"/>
  <path class="cls-1" d="m93.61,173.39c.31-.3.61-.6.92-.91,3.63,1.91,7.33,3.7,10.55,6.31-.03.39-.06.78-.1,1.17-4.31-1.29-7.92-3.79-11.37-6.56Z"/>
  <path class="cls-1" d="m129.59,167.18c1.24-.45,2.16-1.63,3.61-1.58,0,0,.2.25.2.24-.35.49-.7.98-1.05,1.47-.16.14-.31.28-.46.43-1.98,1.51-4.56,2.5-4.76,5.54,0,0,0,0,0,0-1.31-.35-2.4.26-3.57.71-6.79,2.65-13.46,2.16-19.65-1.53-5.32-3.17-10.32-6.88-15.53-10.25-3.41-2.21-7.16-3.28-11.28-3.24-4.86.06-9.67-.6-14.29-2.18-4.28-1.47-7.33-4.14-8.03-8.88.53-.02,1.06-.04,1.6-.06,2.19,6.98,8.28,8.82,14.17,8.74,10.58-.14,19.24,3.63,27.35,9.85,3.72,2.85,7.6,5.6,12.31,6.78,7.71,1.93,14.2.05,19.39-6.05Z"/>
  <path class="cls-1" d="m127.13,173.28c.2-3.04,2.78-4.03,4.76-5.54.17,1.08-.51,1.83-1.05,2.64-.87.87-1.73,1.73-2.59,2.59-.37.1-.75.2-1.12.31Z"/>
  <path class="cls-1" d="m118.55,45.47c-2.28-4.38-6.27-5.74-10.8-5.95-15.42-.71-28.35,5.72-40.53,14.24-.8.56-1.65,1.06-2.48,1.58-.31-.3-.61-.6-.92-.91,9.92-8.55,21.36-13.96,34.21-16.38,6.5-1.22,12.88-1.2,18.78,2.39.77.72,1.53,1.43,2.3,2.15.24.26.47.51.71.77.26,1.34.74,2.54,2.13,3.1.28.47.56.93.84,1.4.23.26.47.52.7.77.08.43.16.85.25,1.28,0,0-.23.26-.23.26-.95-.3-1.9-.6-2.85-.89,0,0-.02-.02-.02-.02-.24-.24-.49-.49-.73-.73,0,0,0,0,0,0,.25-1.33-.3-2.31-1.36-3.06Z"/>
  <path class="cls-1" d="m63.82,54.44c.31.3.61.6.92.91-6.46,6.3-12.33,13-14.54,22.1-.25,1.01-1.14,1.22-2.03,1.33,1.76-10.34,7.6-18.05,15.66-24.34Z"/>
  <path class="cls-1" d="m48.24,78.36c.48.34,1.7-1.18,1.82-.7.08.34-.93,3.05-.96,3.41-.47,4.72,1.31,9.06,2.28,13.53-.3.32-.61.64-.91.96-2.39-5.38-3.86-11.27-2.23-17.2Z"/>
  <path class="cls-1" d="m129.63,55.26c-1,0-1.99,0-2.99,0,0,0-.02-.02-.02-.02-.29-.96-.57-1.92-.86-2.88l.21-.18c.65.1,1.3.2,1.95.31.57.93,1.14,1.85,1.71,2.77Z"/>
  <path class="cls-1" d="m131.87,56.75c-1.14.08-2.15-.04-2.26-1.5,1.06.04,1.82.53,2.26,1.5Z"/>
  <path class="cls-1" d="m125.22,51.43c.25.25.5.51.74.76,0,0-.21.18-.2.18-.24-.25-.49-.49-.74-.73l.2-.2Z"/>
  <path class="cls-1" d="m123.75,49.92c.25.25.49.51.74.76,0,0-.21.2-.21.2-.25-.24-.51-.47-.76-.7,0,0,.23-.26.23-.26Z"/>
  <path class="cls-1" d="m124.49,50.69c.24.25.49.49.73.74,0,0-.2.2-.19.2-.25-.25-.5-.5-.75-.74,0,0,.21-.2.21-.2Z"/>
  <path class="cls-1" d="m62.4,115.01c1.39-5.62-.63-10.09-3.71-14.86-5.47-8.46-5.86-17.74-1.52-27,3.34-7.13,8.35-12.84,14.85-17.26.34.34.67.67,1.01,1.01-5.03,4.24-9.7,8.75-12.93,14.64-5.62,10.25-5.16,20.38,1.31,29.78,3.07,4.46,3.58,8.73,2.84,13.62-.32.04-.64.08-.96.12-.3-.01-.6-.03-.89-.05Z"/>
  <path class="cls-1" d="m57.89,137.4c-.25-.5-.49-.99-.74-1.49.54-.05,1.08-.09,1.62-.14,0,0-.07.1-.07.1,0,.52,0,1.04,0,1.56,0,0,.04.05.04.05-.28-.03-.57-.06-.85-.09Z"/>
  <path class="cls-1" d="m58.79,134.53c.06.19.08.39.06.59-.46-.15-.77-.31-.06-.59Z"/>
  <path class="cls-1" d="m59.33,134.63c-.2.02-.39,0-.58-.06.11-.13.21-.27.31-.41.09.16.18.31.27.47Z"/>
  <path class="cls-1" d="m54.13,141.9c.26-1,.51-2,.77-3,.26-.25.52-.5.77-.75-.53,1.24,1.15,3.39-1.54,3.75Z"/>
  <path class="cls-1" d="m56.39,135.91c0,.24-.01.48-.03.72-.08-.17-.17-.34-.21-.52-.01-.05.15-.14.24-.21Z"/>
  <path class="cls-1" d="m57.44,140.2c-.16.14-.31.27-.46.4-.09-.14-.21-.28-.26-.44-.02-.05.15-.23.19-.22.17.05.32.15.53.26Z"/>
  <path class="cls-1" d="m57.89,137.4c.28.03.57.06.85.09.03.25.07.51.1.76-.32-.28-.64-.57-.95-.85Z"/>
  <path class="cls-1" d="m132.35,167.31c.35-.49.7-.98,1.05-1.47,1.24-.51,2.47-1.02,3.71-1.53-.85,2.17-2.48,3.1-4.76,3.01Z"/>
  <path class="cls-1" d="m58.7,137.44c0-.52,0-1.04,0-1.56,1.06.52,1.04,1.04,0,1.56Z"/>
  <path class="cls-1" d="m121.78,53.75c.62.62,1.25,1.25,1.87,1.87-.26,1.22.64,2.13.88,3.22,0,0-.23.24-.23.24-.64-.11-1.28-.22-1.92-.34-1-2.19-2.91-3.55-4.62-5.09-4.76-5.24-10.85-3.74-16.7-3.2-2.44.23-4.72,1.6-7.29,1.05,6.23-4.23,13-4.39,20.01-2.63,1.06.27,2.06.8,3.08,1.21,1.5,1.41,2.32,3.74,4.92,3.66Z"/>
  <path class="cls-1" d="m122.1,70.25c.37-.06.74-.12,1.12-.18,3.2.16,5.91,1.74,8.72,3.02,0,0-.11.14-.11.14-3.58.12-6.61-1.6-9.73-2.99Z"/>
  <path class="cls-1" d="m134.85,73.91c-.01.27-.02.54-.03.81-1.14-.2-2.21-.56-2.99-1.48,0,0,.11-.14.11-.14,1.01.13,2.13-.11,2.91.82Z"/>
  <path class="cls-1" d="m145.24,147.83c-.23-.25-.46-.5-.69-.75.26.01.52.02.79.04,0,.24-.03.48-.1.71Z"/>
  <path class="cls-1" d="m132.53,153.74c-11.8,2.86-20.01-2.93-27.16-11.28-1.69-1.98-3.44-3.91-5.22-5.8-3.58-3.81-7.7-5.82-12.97-3.62-.29-.28-.58-.56-.88-.84,5.22-3.73,9.27-1.58,13.1,1.68,2.63,2.24,4.91,4.91,7.2,7.53,3.2,3.67,6.48,7.08,11.07,9.18,5.78,2.63,11.39,3.24,17.15.22,1.17-.52,2.45-.89,3.03-2.2h-.01c2.02.16,1.07,1.31.75,2.24,0,0,0,0,0,0-.63-.02-1.17.16-1.5.75,0,0,.01,0,.01,0-1.73.28-3.2,1.09-4.57,2.14Z"/>
  <path class="cls-1" d="m137.29,112.59c2.28.85,2.71,3.06,3.48,4.94,2.6,6.38,3.36,13.05,2.96,19.88-.45,4.53-3.79,7.54-5.9,11.2,0,0,.01-.01.01-.01-1.5-.16-2.73.43-3.82,1.4-4.39,1.22-8.57.68-12.57-1.44.27-.28.54-.56.81-.83,4.94.83,9.95,2.33,14.47-1.37l.22.04c.65-.3.94-.82.91-1.52h0c1.43-.06,2.12-.88,2.25-2.24h0c.83-.55.8-1.4.75-2.25v.02c.61-.32.71-.91.75-1.53l-.02.03c1.19-3.77,1.12-7.53,0-11.29.01-.2.02-.4.02-.61-.05-1.14.15-2.33-.77-3.26l.03-.34c-.03-.89.1-1.82-.77-2.44,0,0,0,.01,0,.01.08-3.13-2.02-5.46-3.03-8.18l.23-.2Z"/>
  <path class="cls-1" d="m141.7,146.48c-.22.37-.44.75-.65,1.12-.14-.1-.29-.21-.43-.31.3-.32.6-.65.9-.97,0,0,.19.16.19.16Z"/>
  <path class="cls-1" d="m86.3,132.2c.29.28.58.56.88.84-2.69,1.49-5.25,3.33-8.53,3.28,2.28-1.93,4.83-3.29,7.66-4.12Z"/>
  <path class="cls-1" d="m122.26,147.73c-.27.28-.54.56-.81.83-2.66-1.51-5.59-2.61-7.58-5.1.27-.27.53-.54.8-.81,2.53,1.69,5.06,3.39,7.59,5.08Z"/>
  <path class="cls-1" d="m132.53,153.74c1.36-1.06,2.84-1.87,4.57-2.14-.35,2.12-2.41,2.1-3.75,2.99-.27-.28-.55-.56-.82-.84Z"/>
  <path class="cls-1" d="m134.03,150c1.09-.96,2.32-1.56,3.82-1.4-.59,1.32-1.87,1.69-3.03,2.2-.26-.27-.53-.54-.79-.81Z"/>
  <path class="cls-1" d="m73.03,56.89c-.34-.34-.67-.67-1.01-1.01,9.58-7.48,20.38-12.05,32.49-13.23,4.74-.46,9.41.13,13.14,3.66.6.89,1.25,1.74,2.26,2.21,0,0,0,0,0,0,.24.24.49.49.73.73,0,0,.02.02.02.02.13.57.26,1.14.4,1.71-1.5.11-2.23-1.13-3.24-1.87-1.95-3.51-5.43-4.06-8.88-4.36-11.16-.99-20.81,3.43-30.18,8.72-1.94,1.09-3.82,2.27-5.73,3.41Z"/>
  <path class="cls-1" d="m117.82,49.13c1.01.74,1.74,1.97,3.24,1.86,0,0,.13.12.13.12.2.88.4,1.76.6,2.63-2.6.08-3.42-2.25-4.92-3.66.32-.32.64-.64.96-.96Z"/>
  <path class="cls-1" d="m140.86,123.41s-.03.34-.03.34c.04,1.14-.26,2.35.77,3.26,0,.2,0,.4-.02.61,0,3.77,0,7.53,0,11.29,0,0,.02-.03.02-.03-.58.34-.75.9-.77,1.53,0,0,.01-.02.01-.02-.8.57-.82,1.4-.75,2.26,0,0,0,0,0,0-1.45.05-1.77,1.22-2.25,2.25,0,0,0,0,0,0-.65.3-.79.9-.91,1.52,0,0-.22-.04-.22-.04-2.47-.44-4.74,1.1-7.35.37-7.81-2.19-13.79-6.61-17.93-13.56-2.86-4.81-5.8-9.57-10.1-13.29-2.45-2.12-4.89-2.79-7.58-.27-1.26,1.18-2.83,2.03-3.76,3.56-1.98,1.51-3.97,3.02-5.95,4.53-.25.25-.51.51-.76.76,0,0,.02-.02.02-.02-.63.25-1.26.51-1.89.76,0,0-.02-.02-.03-.02-5.09.65-7.26-.71-8.43-5.21-.33-1.27.17-2.73-.91-3.81.51-.76,1.33-.67,2.09-.74.04.5.13.99.13,1.48,0,2.6.49,5.26,2.87,6.47,2.64,1.35,5.1-.34,7.2-1.9,2.29-1.7,4.41-3.63,6.49-5.58,4.59-4.29,7.76-4.63,12.42-.67,4.23,3.59,6.86,8.48,9.59,13.2,3.34,5.77,8.31,9.52,14.33,11.94,5.55,2.24,11.38-.97,12.72-6.73,2.12-9.12-3.25-23.26-10.85-28.57-4.26-2.98-5-5.71-2.29-10.12,2.47-4.01,5.27-7.82,7.93-11.72,2.08-3.04,1.79-5.1-1.05-7.39-6.33-5.11-21.24-6.5-28.4-2.79-4.11,2.13-6.23,5.91-8.55,9.56-.44.01-.88.02-1.33.03.36-2.61,2.06-4.47,3.62-6.39,5.26-6.5,12.43-7.67,20.19-7.14,2.16.91,4.47.83,6.74,1,1.33,1.04,2.78,1.82,4.49,2.02.76.42,1.54.81,2.26,1.28,6.06,3.91,6.43,6.06,2.42,11.92-2.37,3.47-5.2,6.64-6.93,10.54-2.01,4.52-1.01,6.83,3.75,8.43l-.05-.05.81.79c.75.48,1.5.96,2.25,1.44,0,0,.02,0,.02,0-.02.26-.04.51-.06.77-.05.1-.09.2-.14.3.05-.09.11-.19.16-.28.5,0,1-.02,1.51-.03,0,0,0,0,0,0,0,.45-.02.91-.03,1.36-.43,3.54,2,5.81,3.73,8.39h0c-.09.91-.02,1.79.77,2.43Z"/>
  <path class="cls-1" d="m84.05,127.7c.25.24.49.48.74.73-.5.01-1,.02-1.5.03.25-.25.51-.51.76-.76Z"/>
  <path class="cls-1" d="m81.43,129.2c.63-.25,1.26-.51,1.89-.76-.4.82-1.11.88-1.89.76Z"/>
  <path class="cls-1" d="m95.27,100.04c-.86,4.83-5.41,4.51-8.57,6.12-.91-.32-1.82-.63-2.73-.95,4.86-3.09,4.95-7.96,4.5-12.81-1.26-13.51,13.2-24.32,25.26-24.35.87,0,1.75-.02,2.45.64,0,.44-.01.89-.02,1.33-2.72-.8-5.41-.22-8.06.32-9.18,1.9-16.06,9.51-17.59,18.8-.67,4.09-.27,8.16-.63,12.23-.34.37-.69.83-.26,1.27.43.44.89.11,1.26-.25,1.81-.13,2.92-1.59,4.4-2.35Z"/>
  <path class="cls-1" d="m78.07,109.03c.24.04.47.09.71.13-.07.12-.13.24-.2.36-.17-.16-.34-.32-.51-.49h0Z"/>
  <path class="cls-1" d="m137.09,151.6c.33-.59.87-.77,1.5-.75-.3.65-.85.8-1.5.75Z"/>
  <path class="cls-1" d="m124.53,58.84c-.23-1.09-1.13-2-.88-3.22,2.06,1.53,4.47,2.64,5.98,4.85-2.02.45-3.19-1.76-5.11-1.63Z"/>
  <path class="cls-1" d="m121.19,51.12s-.13-.12-.13-.12c-.13-.57-.26-1.14-.39-1.71.95.3,1.9.59,2.85.89.25.24.51.47.76.71.25.25.5.5.75.74.24.25.49.49.74.74.29.96.57,1.92.86,2.88-2.56-.4-3.45-2.98-5.44-4.12Z"/>
  <path class="cls-1" d="m119.91,48.53c-1.01-.47-1.66-1.32-2.26-2.21.3-.28.6-.56.9-.85,1.06.75,1.61,1.73,1.36,3.06Z"/>
  <path class="cls-1" d="m120.65,49.27c-.24-.24-.49-.49-.73-.73.24.24.49.49.73.73Z"/>
  <path class="cls-1" d="m116.16,70.02c0-.44.01-.89.02-1.33,1.97.52,3.95,1.04,5.92,1.56,3.12,1.39,6.15,3.1,9.73,2.99.78.93,1.85,1.28,2.99,1.49.54.39,1.08.77,1.62,1.16-.03.34-.06.67-.08,1-2-.56-4-1.11-6-1.67-1.28-1.17-3.01-1.3-4.52-1.94-2.22-.54-4.45-1.07-6.67-1.61-.74-1.04-1.92-1.25-3.01-1.63Z"/>
  <path class="cls-1" d="m136.36,76.87c.03-.33.06-.66.08-1,7.1,2.15,9.13,7.57,5.15,13.71-1.82,2.81-3.53,5.69-5.4,8.46-2.67,3.94-3.59,8-1.29,12.43-.75-.48-1.5-.96-2.25-1.44-.27-.26-.54-.53-.81-.79,0,0,.05.05.05.05-.63-4.07.76-7.56,2.97-10.88,2.07-3.1,4.15-6.21,6-9.45,2.22-3.87,1.33-7.12-2.36-9.64-.71-.49-1.43-.98-2.14-1.46Z"/>
  <path class="cls-1" d="m136.39,111.22c-.5,0-1,.02-1.51.03l-.02-.02c.02-.26.04-.51.06-.77.67-.09,1.16.15,1.47.76Z"/>
  <path class="cls-1" d="m136.36,112.58c0-.45.02-.91.03-1.36.3.46.6.91.9,1.37,0,0-.23.2-.23.2-.24-.03-.48-.1-.7-.21Z"/>
  <path class="cls-1" d="m136.36,112.58c.22.11.45.18.7.21,1.02,2.73,3.11,5.05,3.03,8.18-1.73-2.58-4.16-4.85-3.73-8.39Z"/>
  <path class="cls-1" d="m141.58,138.91c0-3.76,0-7.53,0-11.29,1.12,3.76,1.2,7.53,0,11.29Z"/>
  <path class="cls-1" d="m137.85,144.88c.47-1.02.8-2.19,2.25-2.25-.13,1.37-.81,2.18-2.25,2.25Z"/>
  <path class="cls-1" d="m141.59,127.01c-1.03-.9-.72-2.12-.77-3.26.92.93.72,2.12.77,3.26Z"/>
  <path class="cls-1" d="m140.86,123.41c-.79-.65-.86-1.52-.77-2.44.87.62.74,1.56.77,2.44Z"/>
  <path class="cls-1" d="m140.09,142.64c-.07-.86-.05-1.69.75-2.26.04.85.07,1.7-.75,2.26Z"/>
  <path class="cls-1" d="m136.94,146.4c.12-.62.26-1.22.91-1.52.03.7-.26,1.22-.91,1.52Z"/>
  <path class="cls-1" d="m140.83,140.41c.02-.63.18-1.18.77-1.53-.05.61-.14,1.2-.77,1.53Z"/>
  <path class="cls-1" d="m95.08,98.55c.09-3.97.18-7.94.28-11.91.44-.01.88-.02,1.33-.03-1.39,3.94.86,7.96-.25,11.9-.45.01-.9.03-1.35.04Z"/>
  <path class="cls-1" d="m119.16,73.11c0-.48.01-.97.02-1.45,2.22.54,4.45,1.07,6.67,1.61.02.28.03.56.05.84-2.27-.17-4.58-.09-6.74-1Z"/>
  <path class="cls-1" d="m125.9,74.11c-.02-.28-.03-.56-.05-.84,1.51.64,3.24.77,4.52,1.94,0,.31.02.61.03.92-1.71-.2-3.16-.98-4.49-2.02Z"/>
  <path class="cls-1" d="m131.84,108.25c.27.26.54.53.81.79-.27-.26-.54-.53-.81-.79Z"/>
  <path class="cls-1" d="m134.88,111.25c-.05.09-.11.19-.16.28.05-.1.09-.2.14-.3,0,0,.02.02.02.02Z"/>
  <path class="cls-1" d="m95.08,98.55c.45-.01.9-.03,1.35-.04.27,1.03-.39,1.36-1.19,1.58.08-.53-.83-.95-.16-1.54Z"/>
  <path class="cls-1" d="m89.88,101.37c.33.34.66.68.99,1.02-.37.36-.82.7-1.25.25-.43-.44-.08-.89.26-1.27Z"/>
</svg>